<svg width="68" height="44" viewBox="0 0 68 44" version="1.1" xmlns="http://www.w3.org/2000/svg" xmlns:xlink="http://www.w3.org/1999/xlink">
<title>autocaravana-black-icon</title>
<desc>Created using Figma</desc>
<g id="Canvas" transform="translate(-4790 -2576)">
<g id="autocaravana-black-icon">
<g id="circle">
<use xlink:href="#path0_stroke" transform="translate(4832.85 2605.55)"/>
</g>
<g id="circle">
<use xlink:href="#path0_stroke" transform="translate(4799.11 2605.55)"/>
</g>
<g id="path">
<use xlink:href="#path1_stroke" transform="translate(4792 2578)"/>
</g>
</g>
</g>
<defs>
<path id="path0_stroke" d="M 11.7567 6.52929C 11.7567 9.44966 9.40003 11.8086 6.50336 11.8086L 6.50336 14.3086C 10.7901 14.3086 14.2567 10.821 14.2567 6.52929L 11.7567 6.52929ZM 6.50336 11.8086C 3.6067 11.8086 1.25 9.44966 1.25 6.52929L -1.25 6.52929C -1.25 10.821 2.21661 14.3086 6.50336 14.3086L 6.50336 11.8086ZM 1.25 6.52929C 1.25 3.60893 3.6067 1.25 6.50336 1.25L 6.50336 -1.25C 2.21661 -1.25 -1.25 2.2376 -1.25 6.52929L 1.25 6.52929ZM 6.50336 1.25C 9.40003 1.25 11.7567 3.60893 11.7567 6.52929L 14.2567 6.52929C 14.2567 2.2376 10.7901 -1.25 6.50336 -1.25L 6.50336 1.25Z"/>
<path id="path1_stroke" d="M 55.7111 6.12121L 56.8281 5.56017L 56.8281 5.56017L 55.7111 6.12121ZM 61.6552 17.9556L 62.7722 17.3945L 62.7722 17.3945L 61.6552 17.9556ZM 64.0953 22.8137L 65.2123 22.2526L 64.0953 22.8137ZM 54.0208 2.75582L 52.9038 3.31686L 54.0208 2.75582ZM 54.2625 35.5288L 59.6272 35.5288L 59.6272 33.0288L 54.2625 33.0288L 54.2625 35.5288ZM 65.8772 29.2788L 65.8772 25.0579L 63.3772 25.0579L 63.3772 29.2788L 65.8772 29.2788ZM 49.5527 -1.25L 5 -1.25L 5 1.25L 49.5527 1.25L 49.5527 -1.25ZM -1.25 5L -1.25 29.2788L 1.25 29.2788L 1.25 5L -1.25 5ZM 5 35.5288L 6.0969 35.5288L 6.0969 33.0288L 5 33.0288L 5 35.5288ZM 56.8281 5.56017L 55.1378 2.19477L 52.9038 3.31686L 54.5941 6.68226L 56.8281 5.56017ZM 55.7111 4.87121L 44.6945 4.87121L 44.6945 7.37121L 55.7111 7.37121L 55.7111 4.87121ZM 41.4445 8.12121L 41.4445 15.9556L 43.9445 15.9556L 43.9445 8.12121L 41.4445 8.12121ZM 65.2123 22.2526L 62.7722 17.3945L 60.5382 18.5166L 62.9782 23.3747L 65.2123 22.2526ZM 62.7722 17.3945L 56.8281 5.56017L 54.5941 6.68226L 60.5382 18.5166L 62.7722 17.3945ZM 44.6945 19.2056L 61.6552 19.2056L 61.6552 16.7056L 44.6945 16.7056L 44.6945 19.2056ZM 36.175 35.5288L 40.4428 35.5288L 40.4428 33.0288L 36.175 33.0288L 36.175 35.5288ZM 37.425 34.2788L 37.425 8.12121L 34.925 8.12121L 34.925 34.2788L 37.425 34.2788ZM 34.175 4.87121L 25.1682 4.87121L 25.1682 7.37121L 34.175 7.37121L 34.175 4.87121ZM 19.9166 35.5288L 23.1682 35.5288L 23.1682 33.0288L 19.9166 33.0288L 19.9166 35.5288ZM 23.1682 35.5288L 36.175 35.5288L 36.175 33.0288L 23.1682 33.0288L 23.1682 35.5288ZM 21.9182 8.12121L 21.9182 34.2788L 24.4182 34.2788L 24.4182 8.12121L 21.9182 8.12121ZM 3.83075 8.12121L 3.83075 12.4869L 6.33075 12.4869L 6.33075 8.12121L 3.83075 8.12121ZM 7.08075 15.7369L 14.6649 15.7369L 14.6649 13.2369L 7.08075 13.2369L 7.08075 15.7369ZM 17.9149 12.4869L 17.9149 8.12121L 15.4149 8.12121L 15.4149 12.4869L 17.9149 12.4869ZM 14.6649 4.87121L 7.08075 4.87121L 7.08075 7.37121L 14.6649 7.37121L 14.6649 4.87121ZM 59.6272 35.5288C 63.079 35.5288 65.8772 32.7306 65.8772 29.2788L 63.3772 29.2788C 63.3772 31.3499 61.6983 33.0288 59.6272 33.0288L 59.6272 35.5288ZM 65.8772 25.0579C 65.8687 24.1334 65.6196 23.0825 65.2123 22.2526L 62.9782 23.3747C 63.2704 23.9376 63.3856 24.4237 63.3772 25.0579L 65.8772 25.0579ZM 49.5527 1.25C 50.9707 1.25 52.2673 2.04977 52.9038 3.31686L 55.1378 2.19477C 54.0771 0.0829475 51.9159 -1.25 49.5527 -1.25L 49.5527 1.25ZM 5 -1.25C 1.54822 -1.25 -1.25 1.54822 -1.25 5L 1.25 5C 1.25 2.92893 2.92893 1.25 5 1.25L 5 -1.25ZM -1.25 29.2788C -1.25 32.7306 1.54822 35.5288 5 35.5288L 5 33.0288C 2.92893 33.0288 1.25 31.3499 1.25 29.2788L -1.25 29.2788ZM 44.6945 4.87121C 42.8996 4.87121 41.4445 6.32629 41.4445 8.12121L 43.9445 8.12121C 43.9445 7.707 44.2803 7.37121 44.6945 7.37121L 44.6945 4.87121ZM 41.4445 15.9556C 41.4445 17.7505 42.8996 19.2056 44.6945 19.2056L 44.6945 16.7056C 44.2803 16.7056 43.9445 16.3698 43.9445 15.9556L 41.4445 15.9556ZM 37.425 8.12121C 37.425 6.32629 35.9699 4.87121 34.175 4.87121L 34.175 7.37121C 34.5892 7.37121 34.925 7.707 34.925 8.12121L 37.425 8.12121ZM 25.1682 4.87121C 23.3733 4.87121 21.9182 6.32629 21.9182 8.12121L 24.4182 8.12121C 24.4182 7.707 24.754 7.37121 25.1682 7.37121L 25.1682 4.87121ZM 6.33075 8.12121C 6.33075 7.707 6.66654 7.37121 7.08075 7.37121L 7.08075 4.87121C 5.28583 4.87121 3.83075 6.32629 3.83075 8.12121L 6.33075 8.12121ZM 3.83075 12.4869C 3.83075 14.2818 5.28583 15.7369 7.08075 15.7369L 7.08075 13.2369C 6.66654 13.2369 6.33075 12.9011 6.33075 12.4869L 3.83075 12.4869ZM 14.6649 15.7369C 16.4598 15.7369 17.9149 14.2818 17.9149 12.4869L 15.4149 12.4869C 15.4149 12.9011 15.0791 13.2369 14.6649 13.2369L 14.6649 15.7369ZM 17.9149 8.12121C 17.9149 6.32629 16.4598 4.87121 14.6649 4.87121L 14.6649 7.37121C 15.0791 7.37121 15.4149 7.707 15.4149 8.12121L 17.9149 8.12121Z"/>
</defs>
</svg>
