<svg width="69" height="45" viewBox="0 0 69 45" version="1.1" xmlns="http://www.w3.org/2000/svg" xmlns:xlink="http://www.w3.org/1999/xlink">
<title>autocaravana-icon</title>
<desc>Created using Figma</desc>
<g id="Canvas" transform="translate(-2020 -2570)">
<g id="autocaravana-icon">
<g id="circle">
<use xlink:href="#path0_stroke" transform="translate(2062.85 2599.55)" fill="#FFFFFF"/>
</g>
<g id="circle">
<use xlink:href="#path0_stroke" transform="translate(2029.11 2599.55)" fill="#FFFFFF"/>
</g>
<g id="path">
<use xlink:href="#path1_stroke" transform="translate(2022 2572)" fill="#FFFFFF"/>
</g>
</g>
</g>
<defs>
<path id="path0_stroke" d="M 11.0067 6.52929C 11.0067 9.03826 8.98301 11.0586 6.50336 11.0586L 6.50336 15.0586C 11.2071 15.0586 15.0067 11.2324 15.0067 6.52929L 11.0067 6.52929ZM 6.50336 11.0586C 4.02372 11.0586 2 9.03826 2 6.52929L -2 6.52929C -2 11.2324 1.79959 15.0586 6.50336 15.0586L 6.50336 11.0586ZM 2 6.52929C 2 4.02032 4.02372 2 6.50336 2L 6.50336 -2C 1.79959 -2 -2 1.8262 -2 6.52929L 2 6.52929ZM 6.50336 2C 8.98301 2 11.0067 4.02032 11.0067 6.52929L 15.0067 6.52929C 15.0067 1.8262 11.2071 -2 6.50336 -2L 6.50336 2Z"/>
<path id="path1_stroke" d="M 55.7111 6.12121L 57.4984 5.22354L 57.4984 5.22354L 55.7111 6.12121ZM 61.6552 17.9556L 63.4424 17.0579L 63.4424 17.0579L 61.6552 17.9556ZM 64.0953 22.8137L 65.8825 21.916L 64.0953 22.8137ZM 54.0208 2.75582L 52.2336 3.65349L 54.0208 2.75582ZM 54.2625 36.2788L 59.6272 36.2788L 59.6272 32.2788L 54.2625 32.2788L 54.2625 36.2788ZM 66.6272 29.2788L 66.6272 25.0579L 62.6272 25.0579L 62.6272 29.2788L 66.6272 29.2788ZM 49.5527 -2L 5 -2L 5 2L 49.5527 2L 49.5527 -2ZM -2 5L -2 29.2788L 2 29.2788L 2 5L -2 5ZM 5 36.2788L 6.0969 36.2788L 6.0969 32.2788L 5 32.2788L 5 36.2788ZM 57.4984 5.22354L 55.808 1.85814L 52.2336 3.65349L 53.9239 7.01889L 57.4984 5.22354ZM 55.7111 4.12121L 44.6945 4.12121L 44.6945 8.12121L 55.7111 8.12121L 55.7111 4.12121ZM 40.6945 8.12121L 40.6945 15.9556L 44.6945 15.9556L 44.6945 8.12121L 40.6945 8.12121ZM 65.8825 21.916L 63.4424 17.0579L 59.8679 18.8532L 62.308 23.7114L 65.8825 21.916ZM 63.4424 17.0579L 57.4984 5.22354L 53.9239 7.01889L 59.8679 18.8532L 63.4424 17.0579ZM 44.6945 19.9556L 61.6552 19.9556L 61.6552 15.9556L 44.6945 15.9556L 44.6945 19.9556ZM 36.175 36.2788L 40.4428 36.2788L 40.4428 32.2788L 36.175 32.2788L 36.175 36.2788ZM 38.175 34.2788L 38.175 8.12121L 34.175 8.12121L 34.175 34.2788L 38.175 34.2788ZM 34.175 4.12121L 25.1682 4.12121L 25.1682 8.12121L 34.175 8.12121L 34.175 4.12121ZM 19.9166 36.2788L 23.1682 36.2788L 23.1682 32.2788L 19.9166 32.2788L 19.9166 36.2788ZM 23.1682 36.2788L 36.175 36.2788L 36.175 32.2788L 23.1682 32.2788L 23.1682 36.2788ZM 21.1682 8.12121L 21.1682 34.2788L 25.1682 34.2788L 25.1682 8.12121L 21.1682 8.12121ZM 3.08075 8.12121L 3.08075 12.4869L 7.08075 12.4869L 7.08075 8.12121L 3.08075 8.12121ZM 7.08075 16.4869L 14.6649 16.4869L 14.6649 12.4869L 7.08075 12.4869L 7.08075 16.4869ZM 18.6649 12.4869L 18.6649 8.12121L 14.6649 8.12121L 14.6649 12.4869L 18.6649 12.4869ZM 14.6649 4.12121L 7.08075 4.12121L 7.08075 8.12121L 14.6649 8.12121L 14.6649 4.12121ZM 59.6272 36.2788C 63.4932 36.2788 66.6272 33.1448 66.6272 29.2788L 62.6272 29.2788C 62.6272 30.9356 61.284 32.2788 59.6272 32.2788L 59.6272 36.2788ZM 66.6272 25.0579C 66.6137 24.0464 66.3244 22.826 65.8825 21.916L 62.308 23.7114C 62.5657 24.1942 62.6407 24.5108 62.6272 25.0579L 66.6272 25.0579ZM 49.5527 2C 50.6871 2 51.7244 2.63981 52.2336 3.65349L 55.808 1.85814C 54.62 -0.507099 52.1995 -2 49.5527 -2L 49.5527 2ZM 5 -2C 1.13401 -2 -2 1.13401 -2 5L 2 5C 2 3.34315 3.34315 2 5 2L 5 -2ZM -2 29.2788C -2 33.1448 1.13401 36.2788 5 36.2788L 5 32.2788C 3.34315 32.2788 2 30.9356 2 29.2788L -2 29.2788ZM 44.6945 4.12121C 42.4853 4.12121 40.6945 5.91207 40.6945 8.12121L 44.6945 8.12121L 44.6945 4.12121ZM 40.6945 15.9556C 40.6945 18.1647 42.4853 19.9556 44.6945 19.9556L 44.6945 15.9556L 40.6945 15.9556ZM 38.175 8.12121C 38.175 5.91207 36.3841 4.12121 34.175 4.12121L 34.175 8.12121L 38.175 8.12121ZM 25.1682 4.12121C 22.9591 4.12121 21.1682 5.91207 21.1682 8.12121L 25.1682 8.12121L 25.1682 4.12121ZM 7.08075 8.12121L 7.08075 4.12121C 4.87161 4.12121 3.08075 5.91207 3.08075 8.12121L 7.08075 8.12121ZM 3.08075 12.4869C 3.08075 14.696 4.87161 16.4869 7.08075 16.4869L 7.08075 12.4869L 3.08075 12.4869ZM 14.6649 16.4869C 16.874 16.4869 18.6649 14.696 18.6649 12.4869L 14.6649 12.4869L 14.6649 16.4869ZM 18.6649 8.12121C 18.6649 5.91207 16.874 4.12121 14.6649 4.12121L 14.6649 8.12121L 18.6649 8.12121Z"/>
</defs>
</svg>
