<svg width="55" height="40" viewBox="0 0 55 40" version="1.1" xmlns="http://www.w3.org/2000/svg" xmlns:xlink="http://www.w3.org/1999/xlink">
<title>autocaravana-color-icon</title>
<desc>Created using Figma</desc>
<g id="Canvas" transform="translate(-4749 -2488)">
<g id="autocaravana-color-icon">
<g id="Ellipse 3">
<use xlink:href="#path0_fill" transform="matrix(0.984808 0.173648 -0.173648 0.984808 4785.12 2511.22)" fill="#FFFFFF"/>
<use xlink:href="#path1_stroke" transform="matrix(0.984808 0.173648 -0.173648 0.984808 4785.12 2511.22)"/>
</g>
<g id="Ellipse 3">
<use xlink:href="#path0_fill" transform="matrix(0.984808 0.173648 -0.173648 0.984808 4759.12 2511.22)" fill="#FFFFFF"/>
<use xlink:href="#path1_stroke" transform="matrix(0.984808 0.173648 -0.173648 0.984808 4759.12 2511.22)"/>
</g>
<g id="Rectangle 33">
<use xlink:href="#path2_fill" transform="translate(4749 2488)" fill="#FF6700"/>
</g>
<g id="Vector 8">
<use xlink:href="#path3_fill" transform="translate(4785 2493)" fill="#FFFFFF"/>
</g>
<g id="Rectangle 65">
<use xlink:href="#path4_fill" transform="translate(4754 2493)" fill="#FFFFFF"/>
</g>
<g id="Rectangle 66">
<use xlink:href="#path5_fill" transform="translate(4770 2492)" fill="#FFFFFF"/>
</g>
</g>
</g>
<defs>
<path id="path0_fill" d="M 10 6C 10 9.31371 7.76142 12 5 12C 2.23858 12 0 9.31371 0 6C 0 2.68629 2.23858 0 5 0C 7.76142 0 10 2.68629 10 6Z"/>
<path id="path1_stroke" d="M 8 6C 8 8.56606 6.33091 10 5 10L 5 14C 9.19194 14 12 10.0614 12 6L 8 6ZM 5 10C 3.66909 10 2 8.56606 2 6L -2 6C -2 10.0614 0.808063 14 5 14L 5 10ZM 2 6C 2 3.43394 3.66909 2 5 2L 5 -2C 0.808063 -2 -2 1.93864 -2 6L 2 6ZM 5 2C 6.33091 2 8 3.43394 8 6L 12 6C 12 1.93864 9.19194 -2 5 -2L 5 2Z"/>
<path id="path2_fill" d="M 50.1794 30.392L 46.1792 30.392L 34.4182 30.392L 30.7862 30.392L 19.717 30.392L 16.9497 30.392L 5.18868 30.392L 5 30.392C 2.23858 30.392 0 28.1534 0 25.392L 0 5C 0 2.23858 2.23858 0 5 0L 41.6554 0C 43.5753 0 45.3256 1.09925 46.1593 2.82859L 47.4121 5.42714L 52.4707 15.9196L 53.0868 17.1974C 54.346 19.8094 55 22.6717 55 25.5714C 55 28.2337 52.8417 30.392 50.1794 30.392Z"/>
<path id="path3_fill" d="M 2 0L 11.215 0L 17 12L 3 12C 1.34315 12 0 10.6569 0 9L 0 2C 0 0.895431 0.895431 0 2 0Z"/>
<path id="path4_fill" d="M 0 2C 0 0.895431 0.895431 0 2 0L 10 0C 11.1046 0 12 0.895431 12 2L 12 10C 12 11.1046 11.1046 12 10 12L 2 12C 0.895431 12 0 11.1046 0 10L 0 2Z"/>
<path id="path5_fill" d="M 0 2C 0 0.895431 0.895431 0 2 0L 9 0C 10.1046 0 11 0.895431 11 2L 11 21C 11 22.1046 10.1046 23 9 23L 2 23C 0.895431 23 0 22.1046 0 21L 0 2Z"/>
</defs>
</svg>
