<svg width="71" height="47" viewBox="0 0 71 47" version="1.1" xmlns="http://www.w3.org/2000/svg" xmlns:xlink="http://www.w3.org/1999/xlink">
<title>caravana-icon</title>
<desc>Created using Figma</desc>
<g id="Canvas" transform="translate(-2276 -2570)">
<g id="caravana-icon">
<g id="path">
<use xlink:href="#path0_stroke" transform="translate(2278 2572)" fill="#FFFFFF"/>
</g>
<g id="line">
<use xlink:href="#path1_stroke" transform="translate(2328.59 2607.39)" fill="#FFFFFF"/>
</g>
<g id="circle">
<use xlink:href="#path2_stroke" transform="translate(2291.84 2599.79)" fill="#FFFFFF"/>
</g>
</g>
</g>
<defs>
<path id="path0_stroke" d="M 28.6364 37.3934L 55.1364 37.3934L 55.1364 33.3934L 28.6364 33.3934L 28.6364 37.3934ZM 62.1364 30.3934L 62.1364 5L 58.1364 5L 58.1364 30.3934L 62.1364 30.3934ZM 55.1364 -2L 5 -2L 5 2L 55.1364 2L 55.1364 -2ZM -2 5L -2 30.3934L 2 30.3934L 2 5L -2 5ZM 5 37.3934L 14.3182 37.3934L 14.3182 33.3934L 5 33.3934L 5 37.3934ZM 13.9318 8.5L 26.6364 8.5L 26.6364 4.5L 13.9318 4.5L 13.9318 8.5ZM 26.6364 8.5L 26.6364 15.9098L 30.6364 15.9098L 30.6364 8.5L 26.6364 8.5ZM 26.6364 15.9098L 13.9318 15.9098L 13.9318 19.9098L 26.6364 19.9098L 26.6364 15.9098ZM 13.9318 15.9098L 13.9318 8.5L 9.93182 8.5L 9.93182 15.9098L 13.9318 15.9098ZM 39.2271 34.918L 39.2271 7.97541L 35.2271 7.97541L 35.2271 34.918L 39.2271 34.918ZM 39.2271 7.97541L 48.8293 7.97541L 48.8293 3.97541L 39.2271 3.97541L 39.2271 7.97541ZM 48.8293 7.97541L 48.8293 34.918L 52.8293 34.918L 52.8293 7.97541L 48.8293 7.97541ZM 55.1364 37.3934C 59.0024 37.3934 62.1364 34.2594 62.1364 30.3934L 58.1364 30.3934C 58.1364 32.0503 56.7932 33.3934 55.1364 33.3934L 55.1364 37.3934ZM 62.1364 5C 62.1364 1.13401 59.0024 -2 55.1364 -2L 55.1364 2C 56.7932 2 58.1364 3.34315 58.1364 5L 62.1364 5ZM 5 -2C 1.13401 -2 -2 1.13401 -2 5L 2 5C 2 3.34315 3.34315 2 5 2L 5 -2ZM -2 30.3934C -2 34.2594 1.13401 37.3934 5 37.3934L 5 33.3934C 3.34315 33.3934 2 32.0503 2 30.3934L -2 30.3934ZM 13.9318 4.5C 11.7227 4.5 9.93182 6.29086 9.93182 8.5L 13.9318 8.5L 13.9318 4.5ZM 26.6364 8.5L 30.6364 8.5C 30.6364 6.29086 28.8455 4.5 26.6364 4.5L 26.6364 8.5ZM 26.6364 15.9098L 26.6364 19.9098C 28.8455 19.9098 30.6364 18.119 30.6364 15.9098L 26.6364 15.9098ZM 13.9318 15.9098L 9.93182 15.9098C 9.93182 18.119 11.7227 19.9098 13.9318 19.9098L 13.9318 15.9098ZM 39.2271 7.97541L 39.2271 3.97541C 37.0179 3.97541 35.2271 5.76627 35.2271 7.97541L 39.2271 7.97541ZM 48.8293 7.97541L 52.8293 7.97541C 52.8293 5.76627 51.0385 3.97541 48.8293 3.97541L 48.8293 7.97541Z"/>
<path id="path1_stroke" d="M 0 -2C -1.10457 -2 -2 -1.10457 -2 0C -2 1.10457 -1.10457 2 0 2L 0 -2ZM 16.4091 2C 17.5137 2 18.4091 1.10457 18.4091 0C 18.4091 -1.10457 17.5137 -2 16.4091 -2L 16.4091 2ZM 0 2L 16.4091 2L 16.4091 -2L 0 -2L 0 2Z"/>
<path id="path2_stroke" d="M 13.2727 7.60656C 13.2727 10.6956 10.7566 13.2131 7.63636 13.2131L 7.63636 17.2131C 12.951 17.2131 17.2727 12.9195 17.2727 7.60656L 13.2727 7.60656ZM 7.63636 13.2131C 4.5161 13.2131 2 10.6956 2 7.60656L -2 7.60656C -2 12.9195 2.32173 17.2131 7.63636 17.2131L 7.63636 13.2131ZM 2 7.60656C 2 4.51751 4.5161 2 7.63636 2L 7.63636 -2C 2.32173 -2 -2 2.29364 -2 7.60656L 2 7.60656ZM 7.63636 2C 10.7566 2 13.2727 4.51751 13.2727 7.60656L 17.2727 7.60656C 17.2727 2.29364 12.951 -2 7.63636 -2L 7.63636 2Z"/>
</defs>
</svg>
