<svg width="71" height="47" viewBox="0 0 71 47" version="1.1" xmlns="http://www.w3.org/2000/svg" xmlns:xlink="http://www.w3.org/1999/xlink">
<title>caravana-black-icon</title>
<desc>Created using Figma</desc>
<g id="Canvas" transform="translate(-5046 -2576)">
<g id="caravana-black-icon">
<g id="path">
<use xlink:href="#path0_stroke" transform="translate(5048 2578)"/>
</g>
<g id="line">
<use xlink:href="#path1_stroke" transform="translate(5098.59 2613.39)"/>
</g>
<g id="circle">
<use xlink:href="#path2_stroke" transform="translate(5061.84 2605.79)"/>
</g>
</g>
</g>
<defs>
<path id="path0_stroke" d="M 28.6364 36.6434L 55.1364 36.6434L 55.1364 34.1434L 28.6364 34.1434L 28.6364 36.6434ZM 61.3864 30.3934L 61.3864 5L 58.8864 5L 58.8864 30.3934L 61.3864 30.3934ZM 55.1364 -1.25L 5 -1.25L 5 1.25L 55.1364 1.25L 55.1364 -1.25ZM -1.25 5L -1.25 30.3934L 1.25 30.3934L 1.25 5L -1.25 5ZM 5 36.6434L 14.3182 36.6434L 14.3182 34.1434L 5 34.1434L 5 36.6434ZM 13.9318 7.75L 26.6364 7.75L 26.6364 5.25L 13.9318 5.25L 13.9318 7.75ZM 27.3864 8.5L 27.3864 15.9098L 29.8864 15.9098L 29.8864 8.5L 27.3864 8.5ZM 26.6364 16.6598L 13.9318 16.6598L 13.9318 19.1598L 26.6364 19.1598L 26.6364 16.6598ZM 13.1818 15.9098L 13.1818 8.5L 10.6818 8.5L 10.6818 15.9098L 13.1818 15.9098ZM 38.4771 34.918L 38.4771 7.97541L 35.9771 7.97541L 35.9771 34.918L 38.4771 34.918ZM 39.2271 7.22541L 48.8293 7.22541L 48.8293 4.72541L 39.2271 4.72541L 39.2271 7.22541ZM 49.5793 7.97541L 49.5793 34.918L 52.0793 34.918L 52.0793 7.97541L 49.5793 7.97541ZM 55.1364 36.6434C 58.5881 36.6434 61.3864 33.8452 61.3864 30.3934L 58.8864 30.3934C 58.8864 32.4645 57.2074 34.1434 55.1364 34.1434L 55.1364 36.6434ZM 61.3864 5C 61.3864 1.54822 58.5881 -1.25 55.1364 -1.25L 55.1364 1.25C 57.2074 1.25 58.8864 2.92893 58.8864 5L 61.3864 5ZM 5 -1.25C 1.54822 -1.25 -1.25 1.54822 -1.25 5L 1.25 5C 1.25 2.92893 2.92893 1.25 5 1.25L 5 -1.25ZM -1.25 30.3934C -1.25 33.8452 1.54822 36.6434 5 36.6434L 5 34.1434C 2.92893 34.1434 1.25 32.4645 1.25 30.3934L -1.25 30.3934ZM 13.9318 5.25C 12.1369 5.25 10.6818 6.70507 10.6818 8.5L 13.1818 8.5C 13.1818 8.08579 13.5176 7.75 13.9318 7.75L 13.9318 5.25ZM 26.6364 7.75C 27.0506 7.75 27.3864 8.08579 27.3864 8.5L 29.8864 8.5C 29.8864 6.70507 28.4313 5.25 26.6364 5.25L 26.6364 7.75ZM 27.3864 15.9098C 27.3864 16.324 27.0506 16.6598 26.6364 16.6598L 26.6364 19.1598C 28.4313 19.1598 29.8864 17.7048 29.8864 15.9098L 27.3864 15.9098ZM 13.9318 16.6598C 13.5176 16.6598 13.1818 16.324 13.1818 15.9098L 10.6818 15.9098C 10.6818 17.7048 12.1369 19.1598 13.9318 19.1598L 13.9318 16.6598ZM 38.4771 7.97541C 38.4771 7.5612 38.8128 7.22541 39.2271 7.22541L 39.2271 4.72541C 37.4321 4.72541 35.9771 6.18049 35.9771 7.97541L 38.4771 7.97541ZM 48.8293 7.22541C 49.2435 7.22541 49.5793 7.5612 49.5793 7.97541L 52.0793 7.97541C 52.0793 6.18049 50.6242 4.72541 48.8293 4.72541L 48.8293 7.22541Z"/>
<path id="path1_stroke" d="M 0 -1.25C -0.690356 -1.25 -1.25 -0.690356 -1.25 0C -1.25 0.690356 -0.690356 1.25 0 1.25L 0 -1.25ZM 16.4091 1.25C 17.0994 1.25 17.6591 0.690356 17.6591 0C 17.6591 -0.690356 17.0994 -1.25 16.4091 -1.25L 16.4091 1.25ZM 0 1.25L 16.4091 1.25L 16.4091 -1.25L 0 -1.25L 0 1.25Z"/>
<path id="path2_stroke" d="M 14.0227 7.60656C 14.0227 11.1126 11.1681 13.9631 7.63636 13.9631L 7.63636 16.4631C 12.5396 16.4631 16.5227 12.5025 16.5227 7.60656L 14.0227 7.60656ZM 7.63636 13.9631C 4.10466 13.9631 1.25 11.1126 1.25 7.60656L -1.25 7.60656C -1.25 12.5025 2.73317 16.4631 7.63636 16.4631L 7.63636 13.9631ZM 1.25 7.60656C 1.25 4.10053 4.10466 1.25 7.63636 1.25L 7.63636 -1.25C 2.73317 -1.25 -1.25 2.71061 -1.25 7.60656L 1.25 7.60656ZM 7.63636 1.25C 11.1681 1.25 14.0227 4.10053 14.0227 7.60656L 16.5227 7.60656C 16.5227 2.71061 12.5396 -1.25 7.63636 -1.25L 7.63636 1.25Z"/>
</defs>
</svg>
