<svg width="243" height="360" viewBox="0 0 243 360" version="1.1" xmlns="http://www.w3.org/2000/svg" xmlns:xlink="http://www.w3.org/1999/xlink">
<title>cargol-yeah</title>
<desc>Created using Figma</desc>
<g id="Canvas" transform="translate(-5845 -1640)">
<g id="cargol-yeah">
<g id="XMLID 56">
<use xlink:href="#path0_fill" transform="translate(5845.39 1776.8)"/>
</g>
<g id="XMLID 55">
<use xlink:href="#path1_fill" transform="translate(5932.97 1868.01)" fill="#F2F2F2"/>
</g>
<g id="XMLID 54">
<use xlink:href="#path2_fill" transform="translate(5994.91 1806.28)" fill="#FFFFFF"/>
</g>
<g id="XMLID 53">
<use xlink:href="#path3_fill" transform="translate(5949.37 1804.4)" fill="#FFFFFF"/>
</g>
<g id="XMLID 52">
<use xlink:href="#path4_fill" transform="translate(5961.41 1645.98)"/>
</g>
<g id="XMLID 51">
<use xlink:href="#path5_fill" transform="translate(5857.55 1706.42)" fill="#FF6700"/>
</g>
<g id="XMLID 50">
<use xlink:href="#path4_fill" transform="translate(5913.52 1640)"/>
</g>
</g>
</g>
<defs>
<path id="path0_fill" d="M 177.276 43.5603C 181.167 25.4185 180.868 17.7431 179.172 2.49201L 19.7474 0C 19.7474 0 5.28146 47.8466 1.29087 77.7507C -2.69973 107.655 2.52409 159.588 17.4888 223.085L 242.323 223.085C 222.07 221.689 195.234 215.21 183.162 210.425C 167.1 204.046 149.541 190.19 142.259 178.528C 135.674 167.961 136.971 142.643 136.971 142.643C 141.161 141.147 143.955 141.347 158.221 133.372C 176.278 123.305 181.466 109.848 182.464 95.1947C 183.461 80.5417 173.685 60.506 177.276 43.5603Z"/>
<path id="path1_fill" d="M 85.8975 0C 85.4985 0.598082 77.5173 25.0198 64.8472 29.9041C 51.0796 35.1872 34.2193 32.1968 21.7487 22.4281C 8.48002 11.9616 1.9953 2.99041 0 0C 9.27813 0.996804 27.136 5.38274 42.9987 5.48242C 67.9399 5.5821 85.8975 0 85.8975 0Z"/>
<path id="path2_fill" d="M 16.5757 16.6733C 16.5757 16.6733 12.7846 13.8823 8.79403 16.6733C 4.80344 19.4644 4.60391 25.1461 6.99826 27.6381C 9.39262 30.1301 10.9889 31.426 13.7823 31.1269C 16.5757 30.8279 16.5757 30.9276 16.5757 30.9276C 16.5757 30.9276 14.4806 40.3972 10.9889 41.394C 7.59685 42.3908 2.80813 43.3877 0.613304 28.4356C -1.58152 13.4835 2.6086 4.0139 5.40202 1.22285C 8.19544 -1.5682 11.1884 0.724448 13.3832 5.0107C 15.578 9.29696 16.3762 12.387 16.5757 16.6733Z"/>
<path id="path3_fill" d="M 17.927 18.1486C 17.927 18.1486 13.8366 15.1582 9.54674 18.1486C 5.25685 21.139 4.95756 27.3192 7.65121 30.0106C 10.3449 32.7019 11.9411 34.0975 14.934 33.7984C 17.927 33.4994 17.927 33.4994 17.927 33.4994C 17.927 33.4994 15.6324 43.7665 11.9411 44.863C 8.2498 45.9594 3.06203 47.0559 0.667673 30.808C -1.72668 14.5601 2.8625 4.29304 5.85544 1.30263C 8.84839 -1.68778 12.0409 0.804233 14.535 5.38953C 17.0291 9.97483 17.7275 13.5633 17.927 18.1486Z"/>
<path id="path4_fill" d="M 18.4565 90.9442L -3.04458e-06 95.9282C -3.04458e-06 95.9282 8.7793 48.281 39.9059 17.1807C 36.1149 13.3929 36.1149 7.01334 39.9059 3.22549C 43.697 -0.562368 49.6829 -1.55917 54.3718 3.22549C 59.0608 8.01014 57.8636 14.1903 54.3718 17.6791C 50.8801 21.168 44.5949 21.467 42.4 19.1743C 40.2052 16.8817 18.4565 43.0976 18.4565 90.9442Z"/>
<path id="path5_fill" d="M 0.0997539 76.0561C 3.29223 80.0433 148.949 78.2491 177.182 78.0497C 205.416 77.8504 210.604 75.0593 210.604 69.5769C 210.604 64.0945 194.641 63.5961 179.876 63.3967C 165.31 63.1974 163.614 67.1846 161.32 51.4351C 159.025 35.6856 149.947 7.77507 141.467 2.39233C 132.987 -2.99041 119.019 2.39233 119.019 2.39233C 119.019 2.39233 108.045 10.3668 95.874 9.56932C 83.7027 8.77187 59.4598 4.0869 49.9822 6.37955C 35.7158 7.07731 -2.19484 68.8791 0.0997539 76.0561Z"/>
</defs>
</svg>
