<svg width="64" height="63" viewBox="0 0 64 63" version="1.1" xmlns="http://www.w3.org/2000/svg" xmlns:xlink="http://www.w3.org/1999/xlink">
<title>contacto-icon</title>
<desc>Created using Figma</desc>
<g id="Canvas" transform="translate(-1987 -2672)">
<g id="contacto-icon">
<g id="path">
<use xlink:href="#path0_stroke" transform="translate(1989 2674)" fill="#FFFFFF"/>
</g>
</g>
</g>
<defs>
<path id="path0_stroke" d="M 29.5 61C 30.6046 61 31.5 60.1046 31.5 59C 31.5 57.8954 30.6046 57 29.5 57L 29.5 61ZM 47.0135 42.5749L 48.3548 41.0913L 47.0135 42.5749ZM 29.5 57C 14.3122 57 2 44.6878 2 29.5L -2 29.5C -2 46.897 12.103 61 29.5 61L 29.5 57ZM 2 29.5C 2 14.3122 14.3122 2 29.5 2L 29.5 -2C 12.103 -2 -2 12.103 -2 29.5L 2 29.5ZM 29.5 2C 44.6878 2 57 14.3122 57 29.5L 61 29.5C 61 12.103 46.897 -2 29.5 -2L 29.5 2ZM 57 29.5C 57 31.9356 57 32.8829 57 33.0591C 57 33.0702 57 33.0782 57 33.0833C 57 33.0859 57 33.0878 57 33.089C 57 33.0896 57 33.09 57 33.0903C 57 33.0904 57 33.0905 57 33.0905C 57 33.0905 59 33.0905 61 33.0905C 61 33.0898 61 33.0785 61 33.058C 61 33.0169 61 32.9388 61 32.8349C 61 32.6272 61 32.3164 61 31.9921C 61 31.3436 61 30.6413 61 30.6025C 61 30.6019 61 30.6015 61 30.6012C 61 30.6011 61 30.601 61 30.6009C 61 30.6008 59 30.6008 57 30.6009C 57 30.601 57 30.6017 57 30.6032C 57 30.6061 57 30.6118 57 30.6205C 57 30.6378 57 30.6668 57 30.7091C 57 30.7935 57 30.9306 57 31.1316C 57 31.5337 57 32.1912 57 33.194L 61 33.194C 61 32.1912 61 31.5337 61 31.1316C 61 30.9306 61 30.7935 61 30.7091C 61 30.6668 61 30.6378 61 30.6205C 61 30.6118 61 30.6061 61 30.6032C 61 30.6017 61 30.601 61 30.6009C 59 30.6008 57 30.6008 57 30.6009C 57 30.601 57 30.6011 57 30.6012C 57 30.6015 57 30.6019 57 30.6025C 57 30.6413 57 31.3436 57 31.9921C 57 32.3164 57 32.6272 57 32.8349C 57 32.9388 57 33.0169 57 33.058C 57 33.0785 57 33.0898 57 33.0905C 59 33.0905 61 33.0905 61 33.0905C 61 33.0905 61 33.0904 61 33.0903C 61 33.09 61 33.0896 61 33.089C 61 33.0878 61 33.0859 61 33.0833C 61 33.0782 61 33.0702 61 33.0591C 61 32.8829 61 31.9356 61 29.5L 57 29.5ZM 55.5014 41.0913C 54.8446 41.6851 53.7754 42.25 51.9281 42.25L 51.9281 46.25C 54.6953 46.25 56.7406 45.3633 58.1839 44.0585L 55.5014 41.0913ZM 51.9281 42.25C 50.0808 42.25 49.0115 41.6851 48.3548 41.0913L 45.6723 44.0585C 47.1156 45.3633 49.1609 46.25 51.9281 46.25L 51.9281 42.25ZM 46.8562 33.1939L 46.8562 30.3082L 42.8562 30.3082L 42.8562 33.1939L 46.8562 33.1939ZM 42.8562 30.3082C 42.8562 37.9078 36.6955 44.0685 29.0959 44.0685L 29.0959 48.0685C 38.9046 48.0685 46.8562 40.1169 46.8562 30.3082L 42.8562 30.3082ZM 29.0959 44.0685C 21.4963 44.0685 15.3356 37.9078 15.3356 30.3082L 11.3356 30.3082C 11.3356 40.1169 19.2872 48.0685 29.0959 48.0685L 29.0959 44.0685ZM 15.3356 30.3082C 15.3356 22.7086 21.4963 16.5479 29.0959 16.5479L 29.0959 12.5479C 19.2872 12.5479 11.3356 20.4995 11.3356 30.3082L 15.3356 30.3082ZM 29.0959 16.5479C 36.6955 16.5479 42.8562 22.7086 42.8562 30.3082L 46.8562 30.3082C 46.8562 20.4995 38.9046 12.5479 29.0959 12.5479L 29.0959 16.5479ZM 57 33.194C 57.0005 34.9019 57.0802 36.5502 56.8665 38.0187C 56.6691 39.4312 56.249 40.4155 55.5014 41.0913L 58.1839 44.0585C 59.9055 42.502 60.5641 40.4602 60.828 38.5725C 61.0757 36.7407 60.9995 34.8147 61 33.194L 57 33.194ZM 48.3548 41.0913C 47.6072 40.4155 47.1871 39.4312 46.9896 38.0186C 46.7759 36.5502 46.8557 34.9019 46.8562 33.1939L 42.8562 33.1939C 42.8566 34.8147 42.7805 36.7407 43.0281 38.5725C 43.292 40.4602 43.9506 42.502 45.6723 44.0585L 48.3548 41.0913Z"/>
</defs>
</svg>
