<svg width="50" height="68" viewBox="0 0 50 68" version="1.1" xmlns="http://www.w3.org/2000/svg" xmlns:xlink="http://www.w3.org/1999/xlink">
<title>finance-icon</title>
<desc>Created using Figma</desc>
<g id="Canvas" transform="translate(-2411 -2661)">
<g id="finance-icon">
<g id="path">
<use xlink:href="#path0_stroke" transform="translate(2413 2663)" fill="#FFFFFF"/>
</g>
</g>
</g>
<defs>
<path id="path0_stroke" d="M 34.8829 54.7422L 34.8829 52.7422C 33.7783 52.7422 32.8829 53.6377 32.8829 54.7422L 34.8829 54.7422ZM 34.8829 30.5913L 32.8829 30.5913C 32.8829 31.6959 33.7783 32.5913 34.8829 32.5913L 34.8829 30.5913ZM 26.3839 1.18768C 27.0399 0.298956 26.8511 -0.953234 25.9624 -1.60917C 25.0737 -2.2651 23.8215 -2.0764 23.1656 -1.18768L 26.3839 1.18768ZM 24.7747 8.25157L 26.3839 7.0639L 24.7747 8.25157ZM 23.1656 15.3155C 22.5096 16.2042 22.6984 17.4564 23.5871 18.1123C 24.4758 18.7682 25.728 18.5795 26.3839 17.6908L 23.1656 15.3155ZM 19.1092 1.18768C 19.7651 0.298956 19.5764 -0.953234 18.6877 -1.60917C 17.799 -2.2651 16.5468 -2.0764 15.8908 -1.18768L 19.1092 1.18768ZM 17.5 8.25157L 19.1092 7.0639L 17.5 8.25157ZM 15.8908 15.3155C 15.2349 16.2042 15.4236 17.4564 16.3123 18.1123C 17.201 18.7682 18.4532 18.5795 19.1092 17.6908L 15.8908 15.3155ZM 12.1092 1.18768C 12.7651 0.298956 12.5764 -0.953234 11.6877 -1.60917C 10.799 -2.2651 9.54677 -2.0764 8.89083 -1.18768L 12.1092 1.18768ZM 10.5 8.25157L 12.1092 7.0639L 10.5 8.25157ZM 8.89083 15.3155C 8.2349 16.2042 8.4236 17.4564 9.31232 18.1123C 10.201 18.7682 11.4532 18.5795 12.1092 17.6908L 8.89083 15.3155ZM 24.7747 8.25157L 26.3839 7.0639L 24.7747 8.25157ZM 17.5 8.25157L 19.1092 7.0639L 17.5 8.25157ZM 10.5 8.25157L 12.1092 7.0639L 10.5 8.25157ZM 29.8829 21.7485L 5 21.7485L 5 25.7485L 29.8829 25.7485L 29.8829 21.7485ZM -2 28.7485L -2 59.0001L 2 59.0001L 2 28.7485L -2 28.7485ZM 5 66.0001L 29.8829 66.0001L 29.8829 62.0001L 5 62.0001L 5 66.0001ZM 36.8829 59.0001L 36.8829 54.7422L 32.8829 54.7422L 32.8829 59.0001L 36.8829 59.0001ZM 34.8829 56.7422L 41 56.7422L 41 52.7422L 34.8829 52.7422L 34.8829 56.7422ZM 48 49.7422L 48 35.5913L 44 35.5913L 44 49.7422L 48 49.7422ZM 41 28.5913L 34.8829 28.5913L 34.8829 32.5913L 41 32.5913L 41 28.5913ZM 36.8829 30.5913L 36.8829 28.7485L 32.8829 28.7485L 32.8829 30.5913L 36.8829 30.5913ZM 38.6396 37.019L 38.6396 47.912L 42.6396 47.912L 42.6396 37.019L 38.6396 37.019ZM 39.6396 46.912L 35.8829 46.912L 35.8829 50.912L 39.6396 50.912L 39.6396 46.912ZM 36.8829 47.912L 36.8829 37.019L 32.8829 37.019L 32.8829 47.912L 36.8829 47.912ZM 35.8829 38.019L 39.6396 38.019L 39.6396 34.019L 35.8829 34.019L 35.8829 38.019ZM 23.1656 -1.18768C 21.9102 0.513191 20.991 2.20703 20.991 4.12579C 20.991 6.04455 21.9102 7.73838 23.1656 9.43925L 26.3839 7.0639C 25.2609 5.54232 24.991 4.72159 24.991 4.12579C 24.991 3.52998 25.2609 2.70925 26.3839 1.18768L 23.1656 -1.18768ZM 23.1656 9.43925C 24.2886 10.9608 24.5585 11.7816 24.5585 12.3774C 24.5585 12.9731 24.2886 13.7939 23.1656 15.3155L 26.3839 17.6908C 27.6393 15.9899 28.5585 14.2961 28.5585 12.3774C 28.5585 10.4586 27.6393 8.76476 26.3839 7.0639L 23.1656 9.43925ZM 15.8908 -1.18768C 14.6355 0.513191 13.7162 2.20703 13.7162 4.12579C 13.7162 6.04455 14.6355 7.73838 15.8908 9.43925L 19.1092 7.0639C 17.9861 5.54232 17.7162 4.72159 17.7162 4.12579C 17.7162 3.52998 17.9861 2.70925 19.1092 1.18768L 15.8908 -1.18768ZM 15.8908 9.43925C 17.0139 10.9608 17.2838 11.7816 17.2838 12.3774C 17.2838 12.9732 17.0139 13.7939 15.8908 15.3155L 19.1092 17.6908C 20.3645 15.99 21.2838 14.2961 21.2838 12.3774C 21.2838 10.4586 20.3645 8.76476 19.1092 7.0639L 15.8908 9.43925ZM 8.89083 -1.18768C 7.63548 0.513191 6.71622 2.20703 6.71622 4.12579C 6.71622 6.04455 7.63548 7.73838 8.89083 9.43925L 12.1092 7.0639C 10.9861 5.54232 10.7162 4.72159 10.7162 4.12579C 10.7162 3.52998 10.9861 2.70925 12.1092 1.18768L 8.89083 -1.18768ZM 8.89083 9.43925C 10.0139 10.9608 10.2838 11.7816 10.2838 12.3774C 10.2838 12.9732 10.0139 13.7939 8.89083 15.3155L 12.1092 17.6908C 13.3645 15.99 14.2838 14.2961 14.2838 12.3774C 14.2838 10.4586 13.3645 8.76476 12.1092 7.0639L 8.89083 9.43925ZM 29.8829 25.7485C 31.5397 25.7485 32.8829 27.0917 32.8829 28.7485L 36.8829 28.7485C 36.8829 24.8825 33.7489 21.7485 29.8829 21.7485L 29.8829 25.7485ZM 5 21.7485C 1.13401 21.7485 -2 24.8825 -2 28.7485L 2 28.7485C 2 27.0917 3.34315 25.7485 5 25.7485L 5 21.7485ZM -2 59.0001C -2 62.8661 1.13401 66.0001 5 66.0001L 5 62.0001C 3.34315 62.0001 2 60.6569 2 59.0001L -2 59.0001ZM 29.8829 66.0001C 33.7489 66.0001 36.8829 62.8661 36.8829 59.0001L 32.8829 59.0001C 32.8829 60.6569 31.5397 62.0001 29.8829 62.0001L 29.8829 66.0001ZM 41 56.7422C 44.866 56.7422 48 53.6082 48 49.7422L 44 49.7422C 44 51.3991 42.6569 52.7422 41 52.7422L 41 56.7422ZM 48 35.5913C 48 31.7253 44.866 28.5913 41 28.5913L 41 32.5913C 42.6569 32.5913 44 33.9344 44 35.5913L 48 35.5913ZM 42.6396 37.019C 42.6396 35.3621 41.2965 34.019 39.6396 34.019L 39.6396 38.019C 39.0874 38.019 38.6396 37.5712 38.6396 37.019L 42.6396 37.019ZM 38.6396 47.912C 38.6396 47.3598 39.0874 46.912 39.6396 46.912L 39.6396 50.912C 41.2965 50.912 42.6396 49.5689 42.6396 47.912L 38.6396 47.912ZM 35.8829 46.912C 36.4352 46.912 36.8829 47.3598 36.8829 47.912L 32.8829 47.912C 32.8829 49.5689 34.226 50.912 35.8829 50.912L 35.8829 46.912ZM 36.8829 37.019C 36.8829 37.5712 36.4352 38.019 35.8829 38.019L 35.8829 34.019C 34.226 34.019 32.8829 35.3621 32.8829 37.019L 36.8829 37.019ZM 23.1656 9.43925C 23.1656 9.43925 23.1656 9.43925 23.1656 9.43925L 26.3839 7.0639C 26.3839 7.0639 26.3839 7.0639 26.3839 7.0639L 23.1656 9.43925ZM 15.8908 9.43925C 15.8908 9.43925 15.8908 9.43925 15.8908 9.43925L 19.1092 7.0639C 19.1092 7.0639 19.1092 7.0639 19.1092 7.0639L 15.8908 9.43925ZM 8.89083 9.43925C 8.89083 9.43925 8.89083 9.43925 8.89083 9.43925L 12.1092 7.0639C 12.1092 7.0639 12.1092 7.0639 12.1092 7.0639L 8.89083 9.43925Z"/>
</defs>
</svg>
