<svg width="75" height="68" viewBox="0 0 75 68" version="1.1" xmlns="http://www.w3.org/2000/svg" xmlns:xlink="http://www.w3.org/1999/xlink">
<title>mans-black-icon</title>
<desc>Created using Figma</desc>
<g id="Canvas" transform="translate(-5328 -2563)">
<g id="mans-black-icon">
<g id="path">
<use xlink:href="#path0_stroke" transform="translate(5329.5 2562.5)"/>
</g>
</g>
</g>
<defs>
<path id="path0_stroke" d="M 69.922 18.527L 69.0356 19.4084L 69.922 18.527ZM 20.5 27.5L 20.2639 28.7275L 20.5 27.5ZM 24.6373 11.8744L 23.9291 10.8443L 24.6373 11.8744ZM 47.9544 3.54559L 47.0705 2.66171L 47.9544 3.54559ZM 39.3384 64.8384L 38.4546 65.7223L 39.3384 64.8384ZM 0.883883 24.6161C 0.395728 24.128 -0.395728 24.128 -0.883883 24.6161C -1.37204 25.1043 -1.37204 25.8957 -0.883883 26.3839L 0.883883 24.6161ZM 7.66155 40.8384L 6.77767 39.9546L 7.66155 40.8384ZM 28.2539 61.2461L 27.37 60.3622L 28.2539 61.2461ZM 34.3839 48.1161C 33.8957 47.628 33.1043 47.628 32.6161 48.1161C 32.128 48.6043 32.128 49.3957 32.6161 49.8839L 34.3839 48.1161ZM 39.8839 43.6161C 39.3957 43.128 38.6043 43.128 38.1161 43.6161C 37.628 44.1043 37.628 44.8957 38.1161 45.3839L 39.8839 43.6161ZM 45.3839 38.1161C 44.8957 37.628 44.1043 37.628 43.6161 38.1161C 43.128 38.6043 43.128 39.3957 43.6161 39.8839L 45.3839 38.1161ZM 63.6161 22.8839C 64.1043 23.372 64.8957 23.372 65.3839 22.8839C 65.872 22.3957 65.872 21.6043 65.3839 21.1161L 63.6161 22.8839ZM 64.3839 20.1161C 63.8957 19.628 63.1043 19.628 62.6161 20.1161C 62.128 20.6043 62.128 21.3957 62.6161 21.8839L 64.3839 20.1161ZM 21.154 27.5937L 21.0398 28.8385L 21.154 27.5937ZM 24.2687 12.1278L 24.9768 13.1579L 24.2687 12.1278ZM 55.0355 3.55565L 55.9219 2.67428L 55.0355 3.55565ZM 61.0729 48.8376L 60.0725 48.0881L 61.0729 48.8376ZM 44.2462 65.6903L 45.0054 66.6833L 44.2462 65.6903ZM 6.80969 45.7462L 5.81668 46.5054L 6.80969 45.7462ZM 56.8839 38.6161L 39.7884 21.5207L 38.0207 23.2884L 55.1161 40.3839L 56.8839 38.6161ZM 21.2681 26.349C 21.0899 26.333 20.933 26.3108 20.7361 26.2725L 20.2639 28.7275C 20.5213 28.7766 20.8002 28.8162 21.0398 28.8385L 21.2681 26.349ZM 20.7361 26.2725C 19.4337 26.022 18.8237 25.5429 18.5009 25.0796L 16.4498 26.5088C 17.2338 27.6341 18.4922 28.3868 20.2639 28.7275L 20.7361 26.2725ZM 24.9768 13.1579L 25.3454 12.9044L 23.9291 10.8443L 23.5605 11.0977L 24.9768 13.1579ZM 38.5909 9.38691L 42.8962 9.74568L 43.1038 7.25432L 38.7985 6.89554L 38.5909 9.38691ZM 43.8839 9.38388L 48.8383 4.42948L 47.0705 2.66171L 42.1161 7.61612L 43.8839 9.38388ZM 54.1491 4.43702L 69.0356 19.4084L 70.8084 17.6456L 55.9219 2.67428L 54.1491 4.43702ZM 69.0281 24.7041L 64.1161 29.6161L 65.8839 31.3839L 70.7959 26.4719L 69.0281 24.7041ZM 64.1161 29.6161L 55.1161 38.6161L 56.8839 40.3839L 65.8839 31.3839L 64.1161 29.6161ZM 42.1161 9.38388L 64.1161 31.3839L 65.8839 29.6161L 43.8839 7.61612L 42.1161 9.38388ZM 55.1161 40.3839L 59.3622 44.63L 61.13 42.8622L 56.8839 38.6161L 55.1161 40.3839ZM 12.3839 36.1161L 0.883883 24.6161L -0.883883 26.3839L 10.6161 37.8839L 12.3839 36.1161ZM 10.6161 36.1161L 6.77767 39.9546L 8.54544 41.7223L 12.3839 37.8839L 10.6161 36.1161ZM 40.2223 63.9546L 32.8839 56.6161L 31.1161 58.3839L 38.4546 65.7223L 40.2223 63.9546ZM 29.1378 62.13L 32.8839 58.3839L 31.1161 56.6161L 27.37 60.3622L 29.1378 62.13ZM 19.3256 58.4282C 20.0787 60.4934 20.9241 61.9578 22.4129 63.0732L 23.9119 61.0725C 22.9762 60.3714 22.3496 59.4235 21.6744 57.5718L 19.3256 58.4282ZM 32.8839 56.6161L 27.3839 51.1161L 25.6161 52.8839L 31.1161 58.3839L 32.8839 56.6161ZM 21.3839 58.8839L 27.3839 52.8839L 25.6161 51.1161L 19.6161 57.1161L 21.3839 58.8839ZM 14.3104 53.3838C 14.8115 54.937 15.3998 56.1675 16.3661 57.1339C 17.3325 58.1002 18.563 58.6885 20.1162 59.1896L 20.8838 56.8104C 19.4844 56.3589 18.6912 55.9235 18.1339 55.3661C 17.5765 54.8088 17.1411 54.0156 16.6896 52.6162L 14.3104 53.3838ZM 27.3839 51.1161L 22.3839 46.1161L 20.6161 47.8839L 25.6161 52.8839L 27.3839 51.1161ZM 16.3839 53.8839L 22.3839 47.8839L 20.6161 46.1161L 14.6161 52.1161L 16.3839 53.8839ZM 5.81668 46.5054C 6.84602 47.8518 8.23193 48.5817 10.1162 49.1896L 10.8838 46.8104C 9.20804 46.2697 8.38435 45.7477 7.80271 44.987L 5.81668 46.5054ZM 9.31038 48.3838C 9.8115 49.937 10.3998 51.1675 11.3661 52.1339C 12.3325 53.1002 13.563 53.6885 15.1162 54.1896L 15.8838 51.8104C 14.4844 51.3589 13.6912 50.9235 13.1339 50.3661C 12.5765 49.8088 12.1411 49.0156 11.6896 47.6162L 9.31038 48.3838ZM 22.3839 46.1161L 17.3839 41.1161L 15.6161 42.8839L 20.6161 47.8839L 22.3839 46.1161ZM 17.3839 41.1161L 12.3839 36.1161L 10.6161 37.8839L 15.6161 42.8839L 17.3839 41.1161ZM 11.3839 48.8839L 17.3839 42.8839L 15.6161 41.1161L 9.61612 47.1161L 11.3839 48.8839ZM 45.3104 61.6162C 44.7697 63.292 44.2477 64.1156 43.487 64.6973L 45.0054 66.6833C 46.3518 65.654 47.0817 64.2681 47.6896 62.3838L 45.3104 61.6162ZM 47.3839 61.1161L 34.3839 48.1161L 32.6161 49.8839L 45.6161 62.8839L 47.3839 61.1161ZM 50.3104 56.6162C 49.8589 58.0156 49.4235 58.8088 48.8661 59.3661C 48.3088 59.9235 47.5156 60.3589 46.1162 60.8104L 46.8838 63.1896C 48.437 62.6885 49.6675 62.1002 50.6339 61.1339C 51.6002 60.1675 52.1885 58.937 52.6896 57.3838L 50.3104 56.6162ZM 52.3839 56.1161L 39.8839 43.6161L 38.1161 45.3839L 50.6161 57.8839L 52.3839 56.1161ZM 60.0725 48.0881C 59.3714 49.0238 58.4235 49.6504 56.5718 50.3256L 57.4282 52.6744C 59.4934 51.9213 60.9578 51.0759 62.0732 49.5871L 60.0725 48.0881ZM 55.8256 51.0718C 55.286 52.5613 54.8357 53.415 54.1161 54.1161C 53.415 54.8357 52.5613 55.286 51.0718 55.8256L 51.9282 58.1744C 53.5866 57.5661 54.9089 56.8403 55.8839 55.8839C 56.8403 54.9089 57.5661 53.5866 58.1744 51.9282L 55.8256 51.0718ZM 57.8839 50.6161L 45.3839 38.1161L 43.6161 39.8839L 56.1161 52.3839L 57.8839 50.6161ZM 65.3839 21.1161L 64.3839 20.1161L 62.6161 21.8839L 63.6161 22.8839L 65.3839 21.1161ZM 69.0356 19.4084C 70.493 20.874 70.4896 23.2426 69.0281 24.7041L 70.7959 26.4719C 73.2318 24.036 73.2374 20.0884 70.8084 17.6456L 69.0356 19.4084ZM 39.7884 21.5207C 37.9833 19.7156 35.3415 19.031 32.8869 19.7323L 33.5737 22.1361C 35.1553 21.6842 36.8576 22.1253 38.0207 23.2884L 39.7884 21.5207ZM 32.8869 19.7323C 30.3991 20.4431 28.2443 22.4599 26.4601 23.9151C 24.5099 25.5058 22.9482 26.503 21.2681 26.349L 21.0398 28.8385C 23.8564 29.0967 26.162 27.3844 28.0403 25.8524C 30.0847 24.1849 31.7198 22.6658 33.5737 22.1361L 32.8869 19.7323ZM 18.5009 25.0796C 17.6129 23.8052 17.7324 22.2128 18.6798 20.3093C 19.6346 18.3683 21.254 16.5127 22.7953 14.9725L 21.0275 13.2047C 19.4241 14.8093 17.5542 16.982 16.4416 19.1954C 15.3214 21.4463 14.7953 24.1344 16.4498 26.5088L 18.5009 25.0796ZM 22.7953 14.9725C 23.4781 14.2878 24.1792 13.7046 24.9768 13.1579L 23.5605 11.0977C 22.6701 11.7115 21.7931 12.441 21.0275 13.2047L 22.7953 14.9725ZM 25.3454 12.9044C 29.2742 10.1812 33.8286 8.97168 38.5909 9.38691L 38.7985 6.89554C 33.6084 6.4814 28.2299 7.90973 23.9291 10.8443L 25.3454 12.9044ZM 48.8383 4.42948C 50.3057 2.96207 52.6859 2.96545 54.1491 4.43702L 55.9219 2.67428C 53.4832 0.221662 49.5162 0.216027 47.0705 2.66171L 48.8383 4.42948ZM 59.3622 44.63C 60.5066 45.7743 60.712 47.2346 60.0725 48.0881L 62.0732 49.5871C 63.7653 47.3287 62.7353 44.4675 61.13 42.8622L 59.3622 44.63ZM 38.4546 65.7223C 39.9755 67.2433 42.7809 68.3841 45.0054 66.6833L 43.487 64.6973C 42.7302 65.2759 41.3551 65.0873 40.2223 63.9546L 38.4546 65.7223ZM 6.77767 39.9546C 5.25672 41.4755 4.11585 44.2809 5.81668 46.5054L 7.80271 44.987C 7.22407 44.2302 7.41265 42.8551 8.54544 41.7223L 6.77767 39.9546ZM 27.37 60.3622C 26.2257 61.5066 24.7654 61.712 23.9119 61.0725L 22.4129 63.0732C 24.6713 64.7653 27.5325 63.7353 29.1378 62.13L 27.37 60.3622Z"/>
</defs>
</svg>
