<svg width="76" height="69" viewBox="0 0 76 69" version="1.1" xmlns="http://www.w3.org/2000/svg" xmlns:xlink="http://www.w3.org/1999/xlink">
<title>mans-icon</title>
<desc>Created using Figma</desc>
<g id="Canvas" transform="translate(-2557 -2556)">
<g id="mans-icon">
<g id="path">
<use xlink:href="#path0_stroke" transform="translate(2559.5 2556.5)" fill="#FFFFFF"/>
</g>
</g>
</g>
<defs>
<path id="path0_stroke" d="M 69.922 18.527L 68.5038 19.9372L 69.922 18.527ZM 20.5 27.5L 20.1223 29.464L 20.5 27.5ZM 24.6373 11.8744L 23.5042 10.2263L 24.6373 11.8744ZM 47.9544 3.54559L 46.5402 2.13138L 47.9544 3.54559ZM 39.3384 64.8384L 37.9242 66.2527L 39.3384 64.8384ZM 1.41421 24.0858C 0.633165 23.3047 -0.633165 23.3047 -1.41421 24.0858C -2.19526 24.8668 -2.19526 26.1332 -1.41421 26.9142L 1.41421 24.0858ZM 7.66155 40.8384L 6.24734 39.4242L 7.66155 40.8384ZM 28.2539 61.2461L 26.8397 59.8319L 28.2539 61.2461ZM 34.9142 47.5858C 34.1332 46.8047 32.8668 46.8047 32.0858 47.5858C 31.3047 48.3668 31.3047 49.6332 32.0858 50.4142L 34.9142 47.5858ZM 40.4142 43.0858C 39.6332 42.3047 38.3668 42.3047 37.5858 43.0858C 36.8047 43.8668 36.8047 45.1332 37.5858 45.9142L 40.4142 43.0858ZM 45.9142 37.5858C 45.1332 36.8047 43.8668 36.8047 43.0858 37.5858C 42.3047 38.3668 42.3047 39.6332 43.0858 40.4142L 45.9142 37.5858ZM 63.0858 23.4142C 63.8668 24.1953 65.1332 24.1953 65.9142 23.4142C 66.6953 22.6332 66.6953 21.3668 65.9142 20.5858L 63.0858 23.4142ZM 64.9142 19.5858C 64.1332 18.8047 62.8668 18.8047 62.0858 19.5858C 61.3047 20.3668 61.3047 21.6332 62.0858 22.4142L 64.9142 19.5858ZM 21.154 27.5937L 20.9714 29.5854L 21.154 27.5937ZM 24.2687 12.1278L 25.4017 13.7759L 24.2687 12.1278ZM 55.0355 3.55565L 56.4537 2.14546L 55.0355 3.55565ZM 61.0729 48.8376L 62.6735 50.0368L 61.0729 48.8376ZM 44.2462 65.6903L 43.0315 64.1015L 44.2462 65.6903ZM 6.80969 45.7462L 8.39852 44.5315L 6.80969 45.7462ZM 23.1624 62.0729L 24.3616 60.4723L 23.1624 62.0729ZM 57.4142 38.0858L 40.3188 20.9903L 37.4903 23.8188L 54.5858 40.9142L 57.4142 38.0858ZM 21.3365 25.6021C 21.1768 25.5881 21.0565 25.571 20.8777 25.536L 20.1223 29.464C 20.3978 29.5164 20.7133 29.5611 20.9714 29.5854L 21.3365 25.6021ZM 20.8777 25.536C 19.7162 25.3126 19.3007 24.9155 19.1163 24.6508L 15.8344 26.9376C 16.7568 28.2614 18.2097 29.0962 20.1223 29.464L 20.8777 25.536ZM 25.4017 13.7759L 25.7703 13.5224L 23.5042 10.2263L 23.1356 10.4797L 25.4017 13.7759ZM 38.5286 10.1343L 42.8339 10.4931L 43.1661 6.50691L 38.8608 6.14813L 38.5286 10.1343ZM 44.4142 9.91421L 49.3686 4.95981L 46.5402 2.13138L 41.5858 7.08579L 44.4142 9.91421ZM 53.6173 4.96584L 68.5038 19.9372L 71.3403 17.1168L 56.4537 2.14546L 53.6173 4.96584ZM 68.4978 24.1738L 63.5858 29.0858L 66.4142 31.9142L 71.3262 27.0022L 68.4978 24.1738ZM 63.5858 29.0858L 54.5858 38.0858L 57.4142 40.9142L 66.4142 31.9142L 63.5858 29.0858ZM 41.5858 9.91421L 63.5858 31.9142L 66.4142 29.0858L 44.4142 7.08579L 41.5858 9.91421ZM 54.5858 40.9142L 58.8319 45.1603L 61.6603 42.3319L 57.4142 38.0858L 54.5858 40.9142ZM 12.9142 35.5858L 1.41421 24.0858L -1.41421 26.9142L 10.0858 38.4142L 12.9142 35.5858ZM 10.0858 35.5858L 6.24734 39.4242L 9.07577 42.2527L 12.9142 38.4142L 10.0858 35.5858ZM 40.7527 63.4242L 33.4142 56.0858L 30.5858 58.9142L 37.9242 66.2527L 40.7527 63.4242ZM 29.6681 62.6603L 33.4142 58.9142L 30.5858 56.0858L 26.8397 59.8319L 29.6681 62.6603ZM 18.621 58.6852C 19.3974 60.8143 20.3085 62.4337 21.9632 63.6735L 24.3616 60.4723C 23.5918 59.8955 23.0309 59.1026 22.379 57.3148L 18.621 58.6852ZM 33.4142 56.0858L 27.9142 50.5858L 25.0858 53.4142L 30.5858 58.9142L 33.4142 56.0858ZM 21.9142 59.4142L 27.9142 53.4142L 25.0858 50.5858L 19.0858 56.5858L 21.9142 59.4142ZM 13.5966 53.6141C 14.1126 55.2134 14.7467 56.5752 15.8358 57.6642C 16.9248 58.7533 18.2866 59.3874 19.8859 59.9034L 21.1141 56.0966C 19.7608 55.66 19.0989 55.2704 18.6642 54.8358C 18.2296 54.4011 17.84 53.7392 17.4034 52.3859L 13.5966 53.6141ZM 27.9142 50.5858L 22.9142 45.5858L 20.0858 48.4142L 25.0858 53.4142L 27.9142 50.5858ZM 16.9142 54.4142L 22.9142 48.4142L 20.0858 45.5858L 14.0858 51.5858L 16.9142 54.4142ZM 5.22087 46.961C 6.38452 48.483 7.9391 49.2753 9.8859 49.9034L 11.1141 46.0966C 9.50087 45.5761 8.84585 45.1165 8.39852 44.5315L 5.22087 46.961ZM 8.59661 48.6141C 9.11261 50.2134 9.74674 51.5752 10.8358 52.6642C 11.9248 53.7533 13.2866 54.3874 14.8859 54.9034L 16.1141 51.0966C 14.7608 50.66 14.0989 50.2704 13.6642 49.8358C 13.2296 49.4011 12.84 48.7392 12.4034 47.3859L 8.59661 48.6141ZM 22.9142 45.5858L 17.9142 40.5858L 15.0858 43.4142L 20.0858 48.4142L 22.9142 45.5858ZM 17.9142 40.5858L 12.9142 35.5858L 10.0858 38.4142L 15.0858 43.4142L 17.9142 40.5858ZM 11.9142 49.4142L 17.9142 43.4142L 15.0858 40.5858L 9.08579 46.5858L 11.9142 49.4142ZM 44.5966 61.3859C 44.0761 62.9991 43.6165 63.6541 43.0315 64.1015L 45.461 67.2791C 46.983 66.1155 47.7753 64.5609 48.4034 62.6141L 44.5966 61.3859ZM 47.9142 60.5858L 34.9142 47.5858L 32.0858 50.4142L 45.0858 63.4142L 47.9142 60.5858ZM 49.5966 56.3859C 49.16 57.7392 48.7704 58.4011 48.3358 58.8358C 47.9011 59.2704 47.2392 59.66 45.8859 60.0966L 47.1141 63.9034C 48.7134 63.3874 50.0752 62.7533 51.1642 61.6642C 52.2533 60.5752 52.8874 59.2134 53.4034 57.6141L 49.5966 56.3859ZM 52.9142 55.5858L 40.4142 43.0858L 37.5858 45.9142L 50.0858 58.4142L 52.9142 55.5858ZM 59.4723 47.6384C 58.8955 48.4082 58.1026 48.9691 56.3148 49.621L 57.6852 53.379C 59.8143 52.6026 61.4337 51.6915 62.6735 50.0368L 59.4723 47.6384ZM 55.121 50.8148C 54.602 52.2537 54.2344 52.9669 53.5858 53.5858C 52.9669 54.2344 52.2537 54.602 50.8148 55.121L 52.1852 58.879C 53.8942 58.2501 55.3571 57.4417 56.4142 56.4142C 57.4417 55.3571 58.2501 53.8942 58.879 52.1852L 55.121 50.8148ZM 58.4142 50.0858L 45.9142 37.5858L 43.0858 40.4142L 55.5858 52.9142L 58.4142 50.0858ZM 65.9142 20.5858L 64.9142 19.5858L 62.0858 22.4142L 63.0858 23.4142L 65.9142 20.5858ZM 68.5038 19.9372C 69.6697 21.1097 69.667 23.0046 68.4978 24.1738L 71.3262 27.0022C 74.0544 24.274 74.0607 19.8527 71.3403 17.1168L 68.5038 19.9372ZM 40.3188 20.9903C 38.3211 18.9926 35.3973 18.235 32.6809 19.0112L 33.7797 22.8572C 35.0994 22.4802 36.5198 22.8483 37.4903 23.8188L 40.3188 20.9903ZM 32.6809 19.0112C 30.0028 19.7763 27.6922 21.9424 25.9861 23.3339C 24.0143 24.9422 22.6757 25.7249 21.3365 25.6021L 20.9714 29.5854C 24.1288 29.8749 26.6576 27.948 28.5143 26.4336C 30.6368 24.7024 32.116 23.3326 33.7797 22.8572L 32.6809 19.0112ZM 19.1163 24.6508C 18.4582 23.7064 18.4557 22.4428 19.3512 20.6434C 20.2587 18.7842 21.8029 17.0237 23.3256 15.5028L 20.4972 12.6744C 18.8751 14.2983 16.9301 16.5661 15.7701 18.8613C 14.5982 21.2163 13.95 24.2332 15.8344 26.9376L 19.1163 24.6508ZM 23.3256 15.5028C 23.9836 14.8418 24.6319 14.3026 25.4017 13.7759L 23.1356 10.4797C 22.2174 11.1135 21.2876 11.8869 20.4972 12.6744L 23.3256 15.5028ZM 25.7703 13.5224C 29.5875 10.8626 33.8947 9.71877 38.5286 10.1343L 38.8608 6.14813C 33.5423 5.73432 27.9166 7.2283 23.5042 10.2263L 25.7703 13.5224ZM 49.3686 4.95981C 50.5425 3.78588 52.4467 3.78858 53.6173 4.96584L 56.4537 2.14546C 53.7224 -0.601473 49.2794 -0.607784 46.5402 2.13138L 49.3686 4.95981ZM 58.8319 45.1603C 59.2707 45.5991 59.5556 46.1367 59.6507 46.6146C 59.7408 47.0668 59.6564 47.3927 59.4723 47.6384L 62.6735 50.0368C 64.6814 47.3569 63.4039 44.0754 61.6603 42.3319L 58.8319 45.1603ZM 37.9242 66.2527C 39.5616 67.8901 42.7961 69.3166 45.461 67.2791L 43.0315 64.1015C 42.8424 64.246 42.5772 64.3263 42.1545 64.2347C 41.703 64.1369 41.1816 63.8531 40.7527 63.4242L 37.9242 66.2527ZM 6.24734 39.4242C 4.60994 41.0616 3.18339 44.2961 5.22087 46.961L 8.39852 44.5315C 8.25401 44.3424 8.17368 44.0772 8.26527 43.6545C 8.36313 43.203 8.64687 42.6816 9.07577 42.2527L 6.24734 39.4242ZM 26.8397 59.8319C 26.4009 60.2707 25.8633 60.5556 25.3854 60.6507C 24.9332 60.7408 24.6073 60.6564 24.3616 60.4723L 21.9632 63.6735C 24.6431 65.6814 27.9246 64.4039 29.6681 62.6603L 26.8397 59.8319Z"/>
</defs>
</svg>
