<svg width="63" height="53" viewBox="0 0 63 53" version="1.1" xmlns="http://www.w3.org/2000/svg" xmlns:xlink="http://www.w3.org/1999/xlink">
<title>mans-color-icon</title>
<desc>Created using Figma</desc>
<g id="Canvas" transform="translate(-5152 -2477)">
<g id="mans-color-icon">
<g id="Rectangle 67">
<use xlink:href="#path0_fill" transform="matrix(0.702178 0.712001 -0.702178 0.712001 5188.8 2485.42)" fill="#F2C94C"/>
</g>
<g id="Rectangle 67">
<use xlink:href="#path1_fill" transform="matrix(0.702178 -0.712001 0.702178 0.712001 5160.23 2503.6)" fill="#F2A84C"/>
</g>
<g id="Rectangle 68">
<use xlink:href="#path2_fill" transform="matrix(0.702178 0.712001 -0.702178 0.712001 5188.28 2488.08)" fill="#F2C94C"/>
</g>
<g id="Rectangle 68">
<use xlink:href="#path3_fill" transform="matrix(-0.702178 0.712001 -0.702178 -0.712001 5184.96 2525.61)" fill="#F2C94C"/>
</g>
<g id="Rectangle 68">
<use xlink:href="#path4_fill" transform="matrix(-0.702178 -0.712001 0.702178 -0.712001 5158.68 2502.92)" fill="#FF6700"/>
</g>
<g id="Rectangle 68">
<use xlink:href="#path5_fill" transform="matrix(0.702178 -0.712001 0.702178 0.712001 5189.49 2484.05)" fill="#FF6700"/>
</g>
<g id="Ellipse 6">
<use xlink:href="#path6_fill" transform="translate(5205.94 2496.06)" fill="#FFFFFF"/>
</g>
<g id="Ellipse 6">
<use xlink:href="#path6_fill" transform="translate(5156.84 2495.42)" fill="#FFFFFF"/>
</g>
</g>
</g>
<defs>
<path id="path0_fill" d="M 1.17987 1.93266C 1.21618 0.854917 2.10038 -2.13069e-08 3.17874 -2.13069e-08L 22.3509 -2.13069e-08C 23.4293 -2.13069e-08 24.3135 0.854916 24.3498 1.93266L 25.46 34.89C 25.4981 36.0203 24.5921 36.9573 23.4612 36.9573L 2.06851 36.9573C 0.937545 36.9573 0.0315652 36.0203 0.0696423 34.89L 1.17987 1.93266Z"/>
<path id="path1_fill" d="M 1.17987 1.93266C 1.21618 0.854917 2.10038 7.91068e-10 3.17874 1.78832e-09L 22.3509 1.95186e-08C 23.4293 2.05158e-08 24.3135 0.854916 24.3498 1.93266L 25.46 34.89C 25.4981 36.0203 24.5921 36.9573 23.4612 36.9573L 2.06851 36.9573C 0.937545 36.9573 0.0315652 36.0203 0.0696423 34.89L 1.17987 1.93266Z"/>
<path id="path2_fill" d="M 0 2C 0 0.895431 0.895431 0 2 0L 4.16233 0C 5.2669 0 6.16233 0.895431 6.16233 2L 6.16233 21.769C 6.16233 22.8736 5.2669 23.769 4.16233 23.769L 2 23.769C 0.895431 23.769 0 22.8736 0 21.769L 0 2Z"/>
<path id="path3_fill" d="M 0 2C 0 0.895431 0.895431 0 2 0L 4.16233 0C 5.2669 0 6.16233 0.895431 6.16233 2L 6.16233 23.3201C 6.16233 24.4246 5.2669 25.3201 4.16233 25.3201L 2 25.3201C 0.895431 25.3201 0 24.4246 0 23.3201L 0 2Z"/>
<path id="path4_fill" d="M 0 2C 0 0.895431 0.895431 0 2 0L 8.26333 0C 9.3679 0 10.2633 0.895431 10.2633 2L 10.2633 24.2975C 10.2633 25.4021 9.3679 26.2975 8.26333 26.2975L 2 26.2975C 0.895431 26.2975 0 25.4021 0 24.2975L 0 2Z"/>
<path id="path5_fill" d="M 0 2C 0 0.895431 0.895431 0 2 0L 8.26333 0C 9.3679 0 10.2633 0.895431 10.2633 2L 10.2633 24.4157C 10.2633 25.5202 9.3679 26.4157 8.26333 26.4157L 2 26.4157C 0.895431 26.4157 0 25.5202 0 24.4157L 0 2Z"/>
<path id="path6_fill" d="M 3.49679 1.77285C 3.49679 2.75197 2.71401 3.54571 1.74839 3.54571C 0.782783 3.54571 0 2.75197 0 1.77285C 0 0.793734 0.782783 0 1.74839 0C 2.71401 0 3.49679 0.793734 3.49679 1.77285Z"/>
</defs>
</svg>
