<?xml version="1.0" encoding="utf-8"?>
<!-- Generator: Adobe Illustrator 19.0.0, SVG Export Plug-In . SVG Version: 6.00 Build 0)  -->
<svg version="1.1" id="Layer_1" xmlns="http://www.w3.org/2000/svg" xmlns:xlink="http://www.w3.org/1999/xlink" x="0px" y="0px"
	 viewBox="-49 141 512 512" style="enable-background:new -49 141 512 512;" xml:space="preserve">
<style type="text/css">
	.st0{display:none;}
</style>
<path d="M421.1,278.4h23.7c6.7,0,12.8-3.9,15.6-9.9c2.8-5.8,1.9-12.8-2.2-17.7c-12.5-15.2-31.2-23.9-50.9-23.5
	c-19.7,0.4-38.1,9.8-49.9,25.6h-32.7c-3.1-12.3-12.7-21.8-25-24.7c-12.3-2.9-25.2,1.3-33.4,10.9c-6.4-7.5-15.7-11.8-25.6-11.8
	s-19.2,4.3-25.6,11.8c-6.4-7.5-15.7-11.8-25.6-11.8c-9.8,0-19.2,4.3-25.6,11.8c-8.2-9.6-21.1-13.8-33.4-10.9
	c-12.3,2.9-22,12.4-25.1,24.7H55.7c-11.8-15.7-30.2-25.2-49.9-25.6c-19.7-0.4-38.4,8.2-50.9,23.5c-4.2,5-5,11.9-2.2,17.7
	c2.8,6.1,8.9,10,15.6,9.9h23.7c9.3-0.3,17.3,6.6,18.5,15.8c0.4,4.9-1.5,9.8-5,13.3c-3.2,3.2-7.6,5-12.1,5h-24.6
	c-6.7-0.1-12.8,3.9-15.5,10c-2.8,6.2-1.7,13.5,2.8,18.6c12.6,14.5,31.1,22.6,50.3,22c19.2-0.6,37.1-9.7,48.9-25h14.2l-11.5,28.8
	c-3.7,9.3-3.1,19.7,1.5,28.6l51.5,82.9c1.2,2.4,1.8,5,1.8,7.6v65.3c0,9.4,7.6,17.1,17.1,17.1h119.4c9.4,0,17.1-7.6,17.1-17.1v-44.7
	c0-2.6,0.6-5.2,1.8-7.6l31.8-42.8c14.7-19.2,23.7-42.2,25.8-66.4c0.2-3,0.3-6,0.3-9v-42.6h31.9c11.7,15.2,29.7,24.4,48.9,25
	c19.2,0.6,37.7-7.5,50.3-22c4.6-5.1,5.7-12.4,2.8-18.6c-2.7-6.1-8.8-10-15.5-10h-24.6c-4.5,0-8.9-1.8-12.1-5
	c-3.5-3.5-5.3-8.4-5-13.3C403.9,285,411.9,278.2,421.1,278.4z M291.8,244.3c9.4,0,17.1,7.6,17.1,17.1v59.7c0,9.4-7.6,17.1-17.1,17.1
	c-9.4,0-17.1-7.6-17.1-17.1v-59.7C274.7,252,282.4,244.3,291.8,244.3z M240.6,244.3c9.4,0,17.1,7.6,17.1,17.1v59.7
	c0,9.4-7.6,17.1-17.1,17.1s-17.1-7.6-17.1-17.1v-59.7C223.6,252,231.2,244.3,240.6,244.3z M189.4,244.3c9.4,0,17.1,7.6,17.1,17.1
	v27.3c-2.9-1.1-5.9-1.7-8.9-1.7h-25.2v-25.6C172.4,252,180,244.3,189.4,244.3z M138.3,244.3c9.4,0,17.1,7.6,17.1,17.1V287h-34.1
	v-25.6C121.2,252,128.9,244.3,138.3,244.3z M4.4,346.1c-13.6-0.1-26.6-6-35.5-16.3l-6.4,5.6l6.3-5.9h24.6c9.5,0,18.5-3.9,25-10.9
	c6.5-6.9,9.7-16.3,9-25.7c-1.8-18.2-17.2-31.9-35.5-31.6l-23.9,0.3c9-10.9,22.3-17.3,36.4-17.3c27.4,0.7,49.2,23.4,48.6,50.8
	C53.6,322.6,31.8,345.4,4.4,346.1z M65.1,321.1c6.6-16.4,6.7-34.7,0.2-51.2h38.9v19.7c-11.4,4.1-20.5,12.9-25,24.2l-2.9,7.3H65.1z
	 M308.6,388.6c-1.9,20.9-9.7,40.8-22.5,57.4l-32.2,43.4c-0.2,0.3-0.5,0.7-0.7,1c-2.7,5-4.1,10.5-4.1,16.2v44.7H129.7V486
	c0-5.6-1.4-11-4-15.9l-51.5-82.9c-2.2-4.4-2.4-9.4-0.6-14L95,320.1c3.9-9.7,13.3-16.1,23.8-16.1h78.8c2.6,0,5,1.1,6.6,3.1
	c1.6,1.8,2.3,4.3,1.9,6.7c-3.7,21.8-17.9,32.9-42.2,32.9h-25.6c-4.1,0-7.7,2.9-8.4,7c-0.7,4.1,1.5,8.1,5.4,9.5
	c0.6,0.2,62.7,24.3,62.7,77.3c0,4.7,3.8,8.5,8.5,8.5c4.7,0,8.5-3.8,8.5-8.5c0-37.5-23.6-62.4-44.2-77c16.9-0.3,32.6-8.5,42.4-22.2
	c6.1,8.4,15.6,13.5,25.9,13.9c10.3,0.4,20.3-3.9,27-11.8c10.6,12.5,28.6,15.4,42.6,7v30.3C308.8,383.4,308.7,386,308.6,388.6z
	 M325.9,321.1v-51.2h21.8c-6.4,16.5-6.3,34.8,0.2,51.2H325.9z M395.6,319.6c6.4,6.4,15.1,10,24.1,10l24.4,0.2
	c-9,10.3-21.9,16.2-35.5,16.3c-27.5-0.7-49.2-23.4-48.6-50.9c-0.6-27.4,21.2-50.2,48.6-50.8c14,0.1,27.3,6.3,36.2,17.1h-23.7
	c-18.3-0.3-33.7,13.4-35.5,31.6C385,302.9,388.6,312.6,395.6,319.6z"/>
<path class="st0" d="M347.8,653H45.5c-5.9,0-10.7-4.8-10.7-10.7l0,0c0-5.9,4.8-10.7,10.7-10.7h302.3c5.9,0,10.7,4.8,10.7,10.7l0,0
	C358.5,648.2,353.7,653,347.8,653z"/>
</svg>
