<svg width="66" height="66" viewBox="0 0 66 66" version="1.1" xmlns="http://www.w3.org/2000/svg" xmlns:xlink="http://www.w3.org/1999/xlink">
<title>noticas-icon</title>
<desc>Created using Figma</desc>
<g id="Canvas" transform="translate(-2178 -2671)">
<g id="noticas-icon">
<g id="path">
<use xlink:href="#path0_stroke" transform="translate(2180 2673)" fill="#FFFFFF"/>
</g>
</g>
</g>
<defs>
<path id="path0_stroke" d="M 7.23404 47.4894C 7.23404 48.5939 8.12947 49.4894 9.23404 49.4894C 10.3386 49.4894 11.234 48.5939 11.234 47.4894L 7.23404 47.4894ZM 8.59575 20.4681C 9.70031 20.4681 10.5957 19.5727 10.5957 18.4681C 10.5957 17.3635 9.70031 16.4681 8.59575 16.4681L 8.59575 20.4681ZM 41.5532 15.1702C 40.4486 15.1702 39.5532 16.0656 39.5532 17.1702C 39.5532 18.2748 40.4486 19.1702 41.5532 19.1702L 41.5532 15.1702ZM 53.4255 19.1702C 54.5301 19.1702 55.4255 18.2748 55.4255 17.1702C 55.4255 16.0656 54.5301 15.1702 53.4255 15.1702L 53.4255 19.1702ZM 41.5532 24.4043C 40.4486 24.4043 39.5532 25.2997 39.5532 26.4043C 39.5532 27.5088 40.4486 28.4043 41.5532 28.4043L 41.5532 24.4043ZM 53.4255 28.4043C 54.5301 28.4043 55.4255 27.5088 55.4255 26.4043C 55.4255 25.2997 54.5301 24.4043 53.4255 24.4043L 53.4255 28.4043ZM 19.1277 34.9362C 18.0231 34.9362 17.1277 35.8316 17.1277 36.9362C 17.1277 38.0407 18.0231 38.9362 19.1277 38.9362L 19.1277 34.9362ZM 53.4255 38.9362C 54.5301 38.9362 55.4255 38.0407 55.4255 36.9362C 55.4255 35.8316 54.5301 34.9362 53.4255 34.9362L 53.4255 38.9362ZM 19.1277 44.4894C 18.0231 44.4894 17.1277 45.3848 17.1277 46.4894C 17.1277 47.5939 18.0231 48.4894 19.1277 48.4894L 19.1277 44.4894ZM 53.4255 48.4894C 54.5301 48.4894 55.4255 47.5939 55.4255 46.4894C 55.4255 45.3848 54.5301 44.4894 53.4255 44.4894L 53.4255 48.4894ZM 17.234 2L 54 2L 54 -2L 17.234 -2L 17.234 2ZM 60 8L 60 54L 64 54L 64 8L 60 8ZM 54 60L 8 60L 8 64L 54 64L 54 60ZM 11.234 47.4894L 11.234 8L 7.23404 8L 7.23404 47.4894L 11.234 47.4894ZM 2 54L 2 39.5745L -2 39.5745L -2 54L 2 54ZM 2 39.5745L 2 26.4681L -2 26.4681L -2 39.5745L 2 39.5745ZM 8 20.4681L 8.59575 20.4681L 8.59575 16.4681L 8 16.4681L 8 20.4681ZM 17.1277 16.1702L 17.1277 27.3617L 21.1277 27.3617L 21.1277 16.1702L 17.1277 16.1702ZM 20.1277 30.3617L 31.9787 30.3617L 31.9787 26.3617L 20.1277 26.3617L 20.1277 30.3617ZM 34.9787 27.3617L 34.9787 16.1702L 30.9787 16.1702L 30.9787 27.3617L 34.9787 27.3617ZM 31.9787 13.1702L 20.1277 13.1702L 20.1277 17.1702L 31.9787 17.1702L 31.9787 13.1702ZM 41.5532 19.1702L 53.4255 19.1702L 53.4255 15.1702L 41.5532 15.1702L 41.5532 19.1702ZM 41.5532 28.4043L 53.4255 28.4043L 53.4255 24.4043L 41.5532 24.4043L 41.5532 28.4043ZM 19.1277 38.9362L 53.4255 38.9362L 53.4255 34.9362L 19.1277 34.9362L 19.1277 38.9362ZM 19.1277 48.4894L 53.4255 48.4894L 53.4255 44.4894L 19.1277 44.4894L 19.1277 48.4894ZM 17.234 -2C 11.7112 -2 7.23404 2.47715 7.23404 8L 11.234 8C 11.234 4.68629 13.9203 2 17.234 2L 17.234 -2ZM 54 2C 57.3137 2 60 4.68629 60 8L 64 8C 64 2.47715 59.5228 -2 54 -2L 54 2ZM 60 54C 60 57.3137 57.3137 60 54 60L 54 64C 59.5228 64 64 59.5228 64 54L 60 54ZM 8 60C 4.68629 60 2 57.3137 2 54L -2 54C -2 59.5228 2.47715 64 8 64L 8 60ZM 2 26.4681C 2 23.1544 4.68629 20.4681 8 20.4681L 8 16.4681C 2.47715 16.4681 -2 20.9452 -2 26.4681L 2 26.4681ZM 21.1277 16.1702C 21.1277 16.7225 20.6799 17.1702 20.1277 17.1702L 20.1277 13.1702C 18.4708 13.1702 17.1277 14.5134 17.1277 16.1702L 21.1277 16.1702ZM 17.1277 27.3617C 17.1277 29.0186 18.4708 30.3617 20.1277 30.3617L 20.1277 26.3617C 20.6799 26.3617 21.1277 26.8094 21.1277 27.3617L 17.1277 27.3617ZM 31.9787 30.3617C 33.6356 30.3617 34.9787 29.0186 34.9787 27.3617L 30.9787 27.3617C 30.9787 26.8094 31.4264 26.3617 31.9787 26.3617L 31.9787 30.3617ZM 34.9787 16.1702C 34.9787 14.5134 33.6356 13.1702 31.9787 13.1702L 31.9787 17.1702C 31.4264 17.1702 30.9787 16.7225 30.9787 16.1702L 34.9787 16.1702Z"/>
</defs>
</svg>
