<svg width="307" height="179" viewBox="0 0 307 179" version="1.1" xmlns="http://www.w3.org/2000/svg" xmlns:xlink="http://www.w3.org/1999/xlink">
<title>logo</title>
<desc>Created using Figma</desc>
<g id="Canvas" transform="translate(154 238)">
<g id="logo">
<g id="XMLID 56">
<use xlink:href="#path0_fill" transform="translate(-154 -185.107)"/>
</g>
<g id="XMLID 55">
<use xlink:href="#path1_fill" transform="translate(-130.916 -161.206)" fill="#F2F2F2"/>
</g>
<g id="XMLID 54">
<use xlink:href="#path2_fill" transform="translate(-114.663 -177.382)" fill="#FFFFFF"/>
</g>
<g id="XMLID 53">
<use xlink:href="#path3_fill" transform="translate(-126.615 -177.873)" fill="#FFFFFF"/>
</g>
<g id="XMLID 52">
<use xlink:href="#path4_fill" transform="translate(-123.455 -219.386)"/>
</g>
<g id="XMLID 51">
<use xlink:href="#path5_fill" transform="translate(-150.706 -203.547)" fill="#FF6700"/>
</g>
<g id="XMLID 50">
<use xlink:href="#path4_fill" transform="translate(-136.021 -220.953)"/>
</g>
<g id="XMLID 49">
<use xlink:href="#path6_fill" transform="translate(9.25699 -238)"/>
</g>
<g id="XMLID 48">
<use xlink:href="#path7_fill" transform="translate(-58.7966 -234.14)" fill="#FF6700"/>
</g>
<g id="XMLID 47">
<use xlink:href="#path8_fill" transform="matrix(0.906655 0.421838 -0.423363 0.905944 -49.9011 -109.14)"/>
</g>
<g id="XMLID 46">
<use xlink:href="#path9_fill" transform="matrix(0.906655 0.421838 -0.423363 0.905944 -46.6012 -95.5576)" fill="#FFFFFF"/>
</g>
<g id="XMLID 45">
<use xlink:href="#path8_fill" transform="matrix(0.906655 0.421838 -0.423363 0.905944 39.3639 -109.141)"/>
</g>
<g id="XMLID 44">
<use xlink:href="#path10_fill" transform="matrix(0.906655 0.421838 -0.423363 0.905944 42.6638 -95.5592)" fill="#FFFFFF"/>
</g>
<g id="XMLID 43">
<use xlink:href="#path11_fill" transform="translate(-90.9736 -126.205)" fill="#FF6700"/>
</g>
<g id="XMLID 42">
<use xlink:href="#path12_fill" transform="translate(98.9238 -137.864)"/>
</g>
<g id="XMLID 39">
<use xlink:href="#path13_fill" transform="translate(60.5664 -202.626)"/>
</g>
<g id="XMLID 36">
<use xlink:href="#path14_fill" transform="translate(-16.127 -200.848)"/>
</g>
<g id="XMLID 35">
<use xlink:href="#path15_fill" transform="translate(23.4548 -202.346)"/>
</g>
<g id="XMLID 34">
<use xlink:href="#path16_fill" transform="translate(-83.3882 -201.378)"/>
</g>
<g id="XMLID 31">
<use xlink:href="#path17_fill" transform="translate(-53.3254 -200.81)"/>
</g>
<g id="XMLID 30">
<use xlink:href="#path18_fill" transform="translate(95.1542 -201.801)"/>
</g>
</g>
</g>
<defs>
<path id="path0_fill" d="M 47.1152 0.653005C 47.5602 4.6494 47.6387 6.66065 46.6178 11.4145C 45.6754 15.855 48.2408 21.1051 47.979 24.9448C 47.7172 28.7845 46.356 32.3107 41.6178 34.9488C 37.8744 37.0385 37.1415 36.9862 36.042 37.378C 36.042 37.378 35.7017 44.0126 37.4294 46.7813C 39.3404 49.8374 43.9477 53.4681 48.1623 55.1398C 51.3298 56.3935 58.3715 58.0914 63.6856 58.457C 63.2406 61.4086 59.3139 84.6556 58.7904 89.8013C 58.2668 94.947 60.0993 100.249 64.2877 103.305C 55.5705 102.966 47.1937 102.443 33.7384 94.6858C 20.2831 86.9281 7.92723 72.4836 4.00058 55.845C 0.0739347 39.2064 -0.606684 28.2098 0.440422 20.3738C 1.48753 12.5377 5.28329 0 5.28329 0L 47.1152 0.653005Z"/>
<path id="path1_fill" d="M 22.539 1.48476e-14C 22.4342 0.156721 20.34 6.55617 17.0155 7.83606C 13.403 9.22043 8.97893 8.43683 5.70673 5.87705C 2.2251 3.13443 0.523552 0.783606 -7.98878e-07 1.48476e-14C 2.43452 0.261202 7.12032 1.41049 11.2826 1.43661C 17.827 1.46273 22.539 1.48476e-14 22.539 1.48476e-14Z"/>
<path id="path2_fill" d="M 4.34935 4.36907C 4.34935 4.36907 3.3546 3.6377 2.3075 4.36907C 1.26039 5.10043 1.20803 6.58928 1.8363 7.24229C 2.46456 7.89529 2.8834 8.23486 3.61638 8.15649C 4.34935 8.07813 4.34935 8.10426 4.34935 8.10426C 4.34935 8.10426 3.79962 10.5857 2.8834 10.8469C 1.99336 11.1081 0.736835 11.3693 0.160927 7.45125C -0.414981 3.53322 0.684481 1.0518 1.41745 0.320434C 2.15043 -0.410932 2.93576 0.189834 3.51167 1.313C 4.08757 2.43617 4.29699 3.2459 4.34935 4.36907Z"/>
<path id="path3_fill" d="M 4.70392 4.75566C 4.70392 4.75566 3.63064 3.97205 2.505 4.75566C 1.37936 5.53926 1.30083 7.15871 2.00763 7.86396C 2.71442 8.56921 3.13327 8.93489 3.9186 8.85653C 4.70392 8.77817 4.70392 8.77817 4.70392 8.77817C 4.70392 8.77817 4.10184 11.4686 3.13327 11.7559C 2.16469 12.0432 0.803457 12.3305 0.175193 8.07293C -0.45307 3.81533 0.751101 1.12495 1.53643 0.341341C 2.32176 -0.442266 3.15944 0.210741 3.81388 1.41227C 4.46833 2.6138 4.65157 3.55413 4.70392 4.75566Z"/>
<path id="path4_fill" d="M 4.84286 23.831L -7.98878e-07 25.137C -7.98878e-07 25.137 2.30363 12.6515 10.4711 4.50204C 9.4763 3.50947 9.4763 1.83777 10.4711 0.845205C 11.4658 -0.147363 13.0365 -0.408565 14.2668 0.845205C 15.4972 2.09898 15.183 3.71843 14.2668 4.63264C 13.3506 5.54684 11.7014 5.6252 11.1255 5.02444C 10.5496 4.42367 4.84286 11.2933 4.84286 23.831Z"/>
<path id="path5_fill" d="M 0.0261748 19.9297C 0.86386 20.9745 39.0832 20.5044 46.4915 20.4521C 53.8998 20.3999 55.261 19.6685 55.261 18.2319C 55.261 16.7953 51.0726 16.6647 47.1983 16.6125C 43.3764 16.5602 42.9313 17.605 42.3293 13.478C 41.7272 9.35104 39.345 2.03738 37.1199 0.626886C 34.8948 -0.783606 31.2299 0.626886 31.2299 0.626886C 31.2299 0.626886 28.3504 2.7165 25.1567 2.50754C 21.963 2.29858 15.6019 1.07093 13.115 1.67169C 9.3716 1.85454 -0.575911 18.0491 0.0261748 19.9297Z"/>
<path id="path6_fill" d="M 16.2385 0L 58.1227 0C 58.1227 0 61.0023 0.653005 61.5258 2.29858C 62.0494 3.94415 61.5258 6.00765 61.5258 6.00765L 0.00836758 6.00765L 0.00836758 3.91803C 0.00836758 3.91803 -0.436649 0 5.16537 0C 10.7412 0 16.2385 0 16.2385 0Z"/>
<path id="path7_fill" d="M 3.19551e-06 26.7005L 189.788 26.7005C 189.788 26.7005 189.081 12.9873 184.029 6.90133C 178.977 0.815318 176.882 0.0578314 168.322 0.0578314C 159.762 0.0578314 36.1252 0.0578314 36.1252 0.0578314C 36.1252 0.0578314 22.9578 -1.06534 15.6281 6.58789C 8.29831 14.2411 6.36117 17.036 3.19551e-06 26.7005Z"/>
<path id="path8_fill" d="M 18.0555 45.1535C 28.0273 45.1535 36.111 35.0455 36.111 22.5767C 36.111 10.1079 28.0273 6.37951e-06 18.0555 6.37951e-06C 8.08373 6.37951e-06 3.19426e-06 10.1079 3.19426e-06 22.5767C 3.19426e-06 35.0455 8.08373 45.1535 18.0555 45.1535Z"/>
<path id="path9_fill" d="M 9.31559 23.3084C 14.4605 23.3084 18.6312 18.0906 18.6312 11.6542C 18.6312 5.21776 14.4605 3.18976e-06 9.31559 3.18976e-06C 4.17074 3.18976e-06 0 5.21776 0 11.6542C 0 18.0906 4.17074 23.3084 9.31559 23.3084Z"/>
<path id="path10_fill" d="M 9.31559 23.3084C 14.4605 23.3084 18.6312 18.0906 18.6312 11.6542C 18.6312 5.21776 14.4605 3.18976e-06 9.31559 3.18976e-06C 4.17074 3.18976e-06 -6.38852e-06 5.21776 -6.38852e-06 11.6542C -6.38852e-06 18.0906 4.17074 23.3084 9.31559 23.3084Z"/>
<path id="path11_fill" d="M 4.95237 0L 208.091 0C 208.091 0 192.646 35.1839 181.835 40.9304C 171.023 46.6768 125.265 44.9268 100.239 44.7701C 75.2132 44.5872 12.9104 44.7701 12.9104 44.7701C 12.9104 44.7701 2.70109 47.2253 0.0047948 33.9824C -0.178449 21.079 4.95237 0 4.95237 0Z"/>
<path id="path12_fill" d="M 17.1463 24.0653C 17.1463 24.0653 7.98418 44.9614 3.19551e-06 51.7527C 12.827 51.7527 34.8162 43.0024 44.6329 29.1587C 54.4495 15.315 54.973 6.17294 53.4024 2.1243C 51.8317 -1.92433 48.6904 0.687691 47.1197 2.77731C 45.5491 4.86692 36.5178 13.6172 32.0676 16.8822C 27.6174 20.1472 20.1568 23.2817 17.1463 24.0653Z"/>
<path id="path13_fill" d="M 11.0541 71.3536C 6.91806 71.0924 3.48879 70.3872 1.3684 66.9393C -0.385499 64.0922 -0.280788 61.0361 0.713962 58.0062C 3.51497 49.5171 6.36833 41.0542 9.22169 32.5651C 11.2897 26.4007 13.2792 20.1841 15.3996 14.0459C 17.7032 7.41132 22.4152 3.17985 28.9858 0.985749C 32.5198 -0.189661 36.1323 -0.45086 39.7186 0.959631C 43.75 2.55296 46.2369 6.94116 45.0327 11.0943C 43.3835 16.893 41.4464 22.6133 39.5878 28.3336C 37.1532 35.7518 34.6664 43.1699 32.2057 50.588C 31.3418 53.1478 30.6088 55.7337 29.5879 58.2413C 26.9701 64.6668 22.0749 68.6632 15.5043 70.6484C 13.9337 71.0924 12.2583 71.1708 11.0541 71.3536ZM 14.1954 60.9839C 15.9493 61.01 17.4676 59.6518 18.1744 57.5621C 21.7084 46.9835 25.2424 36.4048 28.7502 25.8261C 30.1638 21.5946 31.5774 17.337 32.9648 13.1055C 33.436 11.6689 33.0433 10.9114 31.7083 10.4674C 30.0591 9.91886 27.9125 11.3555 27.2057 13.4973C 23.6194 24.285 20.0331 35.0465 16.4205 45.8342C 15.0593 49.9089 13.7242 53.9837 12.363 58.0584C 11.8133 59.7301 12.5724 60.9839 14.1954 60.9839Z"/>
<path id="path14_fill" d="M 3.19551e-06 68.8183C 0.575911 67.016 1.09945 65.292 1.67536 63.5681C 3.92664 56.8291 6.20409 50.0901 8.48155 43.3511C 10.6805 36.821 12.8532 30.2648 15.026 23.7348C 17.539 16.1599 20.0521 8.55892 22.6175 1.01018C 22.7484 0.618378 23.3505 0.0959734 23.7169 0.0959734C 29.3451 0.0176127 34.9733 -0.0607495 40.6015 0.0698516C 44.0046 0.148212 46.9627 2.47291 47.2507 5.45062C 47.4339 7.46187 47.2506 9.65597 46.6747 11.615C 44.9994 17.2308 43.0622 22.7683 41.1513 28.3319C 40.235 31.0484 38.5335 33.2164 36.099 34.8097C 35.8895 34.9403 35.6539 35.0971 35.4445 35.2538C 35.3398 35.3321 35.2875 35.4627 35.2351 35.5672C 35.2351 35.6717 35.2089 35.7762 35.2613 35.8284C 37.6173 38.2315 37.277 40.9741 36.3346 43.8212C 34.3974 49.6199 32.4603 55.4186 30.6802 61.2695C 30.0781 63.2808 29.8949 65.4488 29.6069 67.5384C 29.476 68.5832 29.1357 69.0533 27.9839 69.0272C 25.2352 68.9489 22.4866 68.975 19.7379 69.0533C 18.717 69.0795 18.3767 68.7921 18.3767 67.7473C 18.3767 64.2995 19.45 61.0867 20.4971 57.8739C 22.1725 52.7282 23.9002 47.5825 25.5494 42.4107C 25.9682 41.1047 25.34 40.3211 24.0049 40.1644C 23.874 40.1383 23.7431 40.1644 23.6122 40.1383C 21.0468 40.0338 21.0992 40.0599 20.2877 42.5152C 17.4867 51.0565 14.6333 59.5978 11.7538 68.113C 11.6229 68.5048 11.0731 68.975 10.7066 68.975C 7.35591 69.0533 4.00517 69.0533 0.628257 69.0533C 0.497369 69.0533 0.392668 68.975 3.19551e-06 68.8183ZM 25.942 31.179C 28.2195 31.2052 29.2666 30.4738 29.9996 28.2797C 31.7273 23.1601 33.4289 18.0667 35.1304 12.9471C 36.0466 10.1784 35.6016 9.60373 32.6697 9.62985C 32.6173 9.62985 32.5912 9.62985 32.5388 9.62985C 31.6226 9.52537 31.1514 9.83881 30.8373 10.7791C 28.7954 17.048 26.6488 23.2907 24.5546 29.5596C 24.1096 30.9178 24.3714 31.1529 25.942 31.179Z"/>
<path id="path15_fill" d="M 23.6895 42.6804C 22.8257 42.6282 21.9094 42.576 20.7838 42.4976C 21.1503 41.3483 21.4644 40.2774 21.8047 39.2326C 22.4068 37.4042 22.9827 35.6019 23.6372 33.7996C 23.7942 33.3816 24.2654 32.8331 24.6058 32.8331C 28.8727 32.7548 33.1397 32.7809 37.616 32.7809C 37.4066 33.5384 37.2757 34.1914 37.0663 34.8182C 34.4485 42.6804 31.9617 50.5949 29.1083 58.3787C 26.7 64.9349 21.8571 69.2186 15.0247 70.7858C 10.8625 71.7522 6.56935 71.7783 2.95684 68.7745C 0.653207 66.8416 -0.158303 64.2557 0.0249407 61.3041C 0.286717 57.3861 1.98826 53.8338 3.16626 50.1769C 5.83638 41.8707 8.63739 33.6167 11.4122 25.3366C 12.7735 21.2619 13.9776 17.1087 15.6268 13.1646C 18.6896 5.79869 24.5272 1.59333 32.302 0.261202C 35.1553 -0.235082 38.1134 -0.104482 40.8359 1.35825C 44.239 3.16055 45.6526 7.07858 44.8149 10.4742C 43.7154 14.8885 42.1971 19.1984 40.8097 23.5343C 40.705 23.8478 40.3123 24.2657 40.0506 24.2657C 36.8045 24.3179 33.5585 24.2918 30.1292 24.2918C 31.1502 21.2096 32.1187 18.258 33.0873 15.3064C 33.3491 14.5228 33.6632 13.7392 33.7941 12.9295C 34.1082 10.9705 32.2496 9.79508 30.0507 10.5264C 28.3753 11.075 27.4068 12.3026 26.8832 13.9221C 22.9566 25.7545 19.0299 37.5609 15.1033 49.3933C 14.1085 52.371 13.1399 55.3226 12.1975 58.3003C 11.7787 59.6063 12.3284 60.4944 13.6635 60.8079C 15.653 61.3041 17.9828 60.2593 18.7158 58.2481C 20.4959 53.233 22.0927 48.1396 23.7681 43.0722C 23.8466 43.0461 23.7681 42.9416 23.6895 42.6804Z"/>
<path id="path16_fill" d="M 32.9685 45.3693C 31.8428 48.7388 30.7434 51.8471 29.7748 54.9815C 28.8586 57.907 27.8376 60.7541 25.9267 63.2094C 21.1623 69.3215 14.9844 72.038 7.26201 70.8887C 2.34061 70.1574 -0.774529 65.7953 0.167866 60.6235C 0.822307 57.0711 2.05266 53.5972 3.17829 50.1493C 5.56046 42.8095 8.04733 35.4958 10.508 28.1561C 12.1049 23.3761 13.597 18.5699 15.2985 13.8422C 18.3352 5.40536 26.9999 -1.09857 36.8689 0.155196C 41.2144 0.70372 44.3295 3.34186 44.4081 8.3047C 44.4604 11.1257 43.5966 13.6855 42.7065 16.2714C 41.7903 18.9356 40.8741 21.5999 40.0102 24.3164C 39.7223 25.2045 39.3296 25.5702 38.361 25.544C 36.7904 25.5179 35.2197 25.6746 33.6491 25.7008C 32.0784 25.7269 30.5339 25.7008 28.6753 25.7008C 29.2774 23.8462 29.801 22.1745 30.3507 20.5028C 31.136 18.0998 32.0261 15.749 32.7067 13.3198C 32.9161 12.5623 32.8376 11.2563 32.3664 10.8645C 31.7643 10.3943 30.5601 10.3421 29.7224 10.551C 28.1518 10.9428 27.445 12.3533 26.9738 13.7899C 23.0209 25.7008 19.0943 37.5855 15.1415 49.4963C 14.2514 52.2128 13.309 54.9293 12.3928 57.6458C 12.0525 58.6645 11.7384 59.7093 12.7593 60.519C 13.4399 61.0675 15.4556 60.9892 16.2148 60.2056C 16.9739 59.422 17.7069 58.4555 18.0472 57.4629C 19.3561 53.78 20.5079 50.0448 21.7906 46.3357C 21.9215 45.9439 22.445 45.4215 22.7853 45.3954C 26.0837 45.3432 29.3821 45.3693 32.9685 45.3693Z"/>
<path id="path17_fill" d="M 1.59776e-06 69.4324C 0.157067 68.91 0.2356 68.5443 0.392666 68.2047C 6.4397 55.5364 12.4867 42.8681 18.5338 30.1998C 23.1149 20.6398 27.6698 11.0537 32.1985 1.46756C 32.6435 0.553348 33.1671 0.187667 34.188 0.187667C 36.8319 0.187667 39.5021 0.109303 42.146 0.00482199C 43.2455 -0.0474184 43.6381 0.318267 43.4287 1.41532C 42.5125 5.96023 41.6486 10.5313 40.7586 15.0762C 39.9471 19.3338 39.1617 23.6175 38.3502 27.8751C 37.4602 32.5767 36.544 37.2523 35.6801 41.9539C 34.8424 46.3943 34.0048 50.8348 33.1932 55.2752C 32.3817 59.585 31.6226 63.8949 30.7587 68.2047C 30.7064 68.5181 30.2352 68.9622 29.9472 68.9883C 26.6488 69.0928 23.3243 69.145 20.0259 69.145C 19.8427 69.145 19.4238 68.492 19.4762 68.2308C 20.183 65.018 20.9421 61.8052 21.7536 58.6186C 21.9892 57.6521 21.6227 57.4171 20.8112 57.4171C 19.4238 57.4171 18.0102 57.3126 16.6228 57.4693C 16.0731 57.5215 15.3663 58.0962 15.1307 58.5925C 13.56 61.8314 12.0941 65.1225 10.6281 68.4398C 10.2878 69.1973 9.86897 69.4585 9.05747 69.4324C 6.09939 69.3801 3.14132 69.4324 1.59776e-06 69.4324ZM 20.1568 47.5697C 21.2301 47.5697 21.9369 47.4914 22.6175 47.5959C 24.0311 47.8309 24.5284 47.0996 24.7902 45.8719C 25.4447 42.8681 26.2038 39.8904 26.8844 36.8866C 27.408 34.6925 27.9054 32.4722 28.4289 30.2782C 28.3242 30.252 28.1933 30.1998 28.0886 30.1737C 25.497 35.8679 22.8793 41.5621 20.1568 47.5697Z"/>
<path id="path18_fill" d="M 34.5283 0.0559727C 27.9315 19.829 21.4133 39.393 14.7904 59.2444C 16.1516 59.2444 17.2249 59.2444 18.2982 59.2444C 20.6018 59.2183 22.9316 59.1921 25.2352 59.1921C 26.6226 59.1921 26.7274 59.3489 26.3085 60.6026C 25.4709 63.1102 24.6332 65.6438 23.7431 68.1252C 23.5861 68.5171 23.0101 69.0133 22.6175 69.0133C 15.4186 69.0917 8.21978 69.1178 1.02093 69.1178C 0.732977 69.1178 0.445017 69.0133 -3.19551e-06 68.935C 0.863859 66.3491 1.70155 63.8415 2.53923 61.334C 5.7329 51.7218 8.90039 42.1356 12.1202 32.5234C 14.6857 24.8702 17.2511 17.1908 19.8165 9.53761C 20.7065 6.87335 21.6227 4.18297 22.4604 1.49258C 22.7745 0.447776 23.2458 -0.0485074 24.4761 0.00373305C 27.3033 0.108214 30.1567 0.0298509 32.9838 0.0298509C 33.3765 0.0559711 33.8477 0.0559727 34.5283 0.0559727Z"/>
</defs>
</svg>
