<svg width="18" height="27" viewBox="0 0 18 27" version="1.1" xmlns="http://www.w3.org/2000/svg" xmlns:xlink="http://www.w3.org/1999/xlink">
<title>cubiertos</title>
<desc>Created using Figma</desc>
<g id="Canvas" transform="translate(-1028 -1743)">
<g id="cubiertos">
<g id="Vector">
<use xlink:href="#path0_fill" transform="translate(1028 1743)" fill="#4F4F4F"/>
</g>
<g id="Vector">
<use xlink:href="#path1_fill" transform="translate(1040.09 1743.11)" fill="#4F4F4F"/>
</g>
</g>
</g>
<defs>
<path id="path0_fill" d="M 6.91641 0.548781L 6.91641 6.75L 5.79179 6.75L 5.79179 0.548781C 5.79179 0.402421 5.73556 0.27439 5.6231 0.164634C 5.51064 0.0548781 5.37006 0 5.20137 0C 5.03267 0 4.8921 0.0548781 4.77963 0.164634C 4.66717 0.27439 4.61094 0.402421 4.61094 0.548781L 4.61094 6.75L 3.48632 6.75L 3.48632 0.548781C 3.48632 0.329268 3.39258 0.173799 3.20517 0.0823171C 3.01775 -0.00916464 2.82094 -0.00916464 2.61474 0.0823171C 2.40854 0.173799 2.30547 0.329268 2.30547 0.548781L 2.30547 6.75L 1.18085 6.75L 1.18085 0.603659C 1.18085 0.347543 1.08711 0.173799 0.899696 0.0823171C 0.712278 -0.00916464 0.515469 -0.00916464 0.30927 0.0823171C 0.103071 0.173799 0 0.329268 0 0.548781L 0 8.67074C 0 9.25618 0.234315 9.73175 0.702887 10.0976C 1.17146 10.4634 1.70565 10.6463 2.30547 10.6463L 2.30547 25.2988C 2.30547 25.9939 2.59602 26.4878 3.17705 26.7805C 3.75809 27.0732 4.33918 27.0732 4.92021 26.7805C 5.50125 26.4878 5.79179 25.9939 5.79179 25.2988L 5.79179 10.6463C 6.3541 10.6463 6.8789 10.4543 7.36626 10.0701C 7.85361 9.68598 8.09726 9.27439 8.09726 8.83537L 8.09726 0.548781C 8.09726 0.329268 8.00352 0.173799 7.81611 0.0823171C 7.62869 -0.00916464 7.43188 -0.00916464 7.22568 0.0823171C 7.01948 0.173799 6.91641 0.329268 6.91641 0.548781Z"/>
<path id="path1_fill" d="M 0 2.14026L 0 16.1891L 1.18085 16.1891L 1.18085 25.1891C 1.18085 25.8842 1.51824 26.3781 2.19301 26.6708C 2.86778 26.9634 3.54255 26.9634 4.21733 26.6708C 4.8921 26.3781 5.22948 25.8842 5.22948 25.1891L 5.22948 2.14026C 5.22948 1.26221 4.79836 0.640276 3.93617 0.274404C 3.07398 -0.0914681 2.2024 -0.0914681 1.32143 0.274404C 0.440457 0.640276 0 1.26221 0 2.14026Z"/>
</defs>
</svg>
