<svg width="28" height="16" viewBox="0 0 28 16" version="1.1" xmlns="http://www.w3.org/2000/svg" xmlns:xlink="http://www.w3.org/1999/xlink">
<title>durmiendo</title>
<desc>Created using Figma</desc>
<g id="Canvas" transform="translate(-931 -1749)">
<g id="durmiendo">
<g id="Vector">
<use xlink:href="#path0_fill" transform="translate(931 1749)" fill="#4F4F4F"/>
</g>
<g id="Vector">
<use xlink:href="#path1_fill" transform="translate(934.659 1750.52)" fill="#4F4F4F"/>
</g>
<g id="Vector">
<use xlink:href="#path2_fill" transform="translate(934.713 1751.54)" fill="#4F4F4F"/>
</g>
</g>
</g>
<defs>
<path id="path0_fill" d="M 25.3468 11.6827L 25.3468 15.8478L 27.5532 15.8478L 27.5532 9.60013L 2.20641 9.60013L 2.20641 1.06668C 2.20641 0.795642 2.09878 0.550153 1.88352 0.330163C 1.66826 0.110071 1.40817 0 1.1032 0C 0.798235 0 0.538148 0.110071 0.322889 0.330163C 0.10763 0.550255 0 0.795794 0 1.06668L 0 15.8478L 2.20641 15.8478L 2.20641 11.6827L 25.3468 11.6827Z"/>
<path id="path1_fill" d="M 2.01806 3.80957C 2.57412 3.80957 3.05846 3.62331 3.47106 3.25084C 3.88365 2.87831 4.08993 2.42959 4.08993 1.90479C 4.08993 1.37983 3.88365 0.931161 3.47106 0.558738C 3.05846 0.186263 2.57412 0 2.01806 0C 1.46199 0 0.986587 0.186263 0.591963 0.558738C 0.197339 0.931212 0 1.37993 0 1.90479C 0 2.42964 0.197339 2.87836 0.591963 3.25084C 0.986587 3.62331 1.46199 3.80957 2.01806 3.80957Z"/>
<path id="path2_fill" d="M 23.84 5.48579L 23.84 2.94607C 23.84 2.53972 23.6875 2.20955 23.3825 1.95558C 23.0774 1.70161 22.6917 1.54074 22.2255 1.47304L 6.24252 0L 6.13489 0C 5.8479 0 5.60573 0.093106 5.40839 0.279369C 5.21105 0.465632 5.11241 0.694206 5.11241 0.965092L 5.11241 3.91116L 1.02248 3.91116C 0.340809 3.91116 0 4.17362 0 4.69847C 0 5.22333 0.340809 5.48579 1.02248 5.48579L 23.84 5.48579Z"/>
</defs>
</svg>
