<svg width="15" height="27" viewBox="0 0 15 27" version="1.1" xmlns="http://www.w3.org/2000/svg" xmlns:xlink="http://www.w3.org/1999/xlink">
<title>sentada</title>
<desc>Created using Figma</desc>
<g id="Canvas" transform="translate(-844 -1743)">
<g id="sentada">
<g id="Vector">
<use xlink:href="#path0_fill" transform="translate(844.233 1743)" fill="#4F4F4F"/>
</g>
<g id="Vector">
<use xlink:href="#path1_fill" transform="translate(844 1749.29)" fill="#4F4F4F"/>
</g>
</g>
</g>
<defs>
<path id="path0_fill" d="M 2.93451 5.44449C 1.36064 5.49003 0.0474709 4.30819 0.00126718 2.80501C -0.0452166 1.30223 1.19276 0.0468041 2.76649 0.00126546C 4.33966 -0.0441376 5.65311 1.13783 5.69959 2.6402C 5.74594 4.14352 4.50767 5.39908 2.93451 5.44449Z"/>
<path id="path1_fill" d="M 0.00693278 1.42051C -0.0314303 1.0581 0.0906595 0.697039 0.34254 0.426382C 0.594561 0.155861 0.95327 -9.51302e-08 1.32976 -9.51302e-08L 4.90873 -9.51302e-08C 5.4902 -9.51302e-08 5.97674 0.427602 6.0326 0.98789L 6.93316 9.9979L 12.2511 9.9979C 12.7912 9.9979 13.3098 10.2059 13.6916 10.5763C 14.0736 10.9463 14.2877 11.4488 14.2868 11.9716L 14.2755 19.2398C 14.2741 20.0542 13.5918 20.7098 12.7512 20.7098C 12.7502 20.7098 12.7491 20.7098 12.7483 20.7098C 11.9065 20.7098 11.2251 20.0474 11.2262 19.2326L 11.2354 13.3977C 11.2354 13.2774 11.186 13.1619 11.0984 13.0768C 11.0106 12.9915 10.8913 12.9438 10.7669 12.9438L 2.59854 12.9438C 1.75652 12.9438 1.16287 12.3219 1.07396 11.469C 1.06794 11.4124 0.331759 4.47783 0.00693278 1.42051Z"/>
</defs>
</svg>
